<?xml version="1.0" encoding="UTF-8"?>
<svg id="standard_product_icon" xmlns="http://www.w3.org/2000/svg" version="1.1" viewBox="0 0 512 512">
  <!-- Generator: Adobe Illustrator 29.1.0, SVG Export Plug-In . SVG Version: 2.1.0 Build 142)  -->
  <defs>
    <style>
      .st0 {
        fill: none;
      }

      .st1 {
        fill: #4285f4;
      }

      .st2 {
        fill: #34a853;
      }

      .st3 {
        fill: #fbbc04;
      }

      .st4 {
        fill: #ea4335;
      }
    </style>
  </defs>
  <g id="bounding_box">
    <rect class="st0" width="512" height="512"/>
  </g>
  <g id="art">
    <path class="st1" d="M380.7,396.7h-249.3c-8.8,0-16-7.2-16-16v-249.3c0-8.8,7.2-16,16-16h249.3c8.8,0,16,7.2,16,16v249.3c0,8.8-7.2,16-16,16ZM147.3,364.7h217.3v-217.3h-217.3v217.3Z"/>
    <path class="st3" d="M147.3,364.7h-32v-233.3c0-8.8,7.2-16,16-16h146.1v32h-130.1v217.3h0Z"/>
    <path class="st1" d="M443,364.7h-62.3c-8.8,0-16-7.2-16-16s7.2-16,16-16h62.3c8.8,0,16,7.2,16,16s-7.2,16-16,16Z"/>
    <path class="st4" d="M443,272h-62.3c-8.8,0-16-7.2-16-16s7.2-16,16-16h62.3c8.8,0,16,7.2,16,16s-7.2,16-16,16Z"/>
    <path class="st4" d="M443,178.5h-62.3c-8.8,0-16-7.2-16-16s7.2-16,16-16h62.3c8.8,0,16,7.2,16,16s-7.2,16-16,16Z"/>
    <path class="st4" d="M349.5,147.3c-8.8,0-16-7.2-16-16v-62.3c0-8.8,7.2-16,16-16s16,7.2,16,16v62.3c0,8.8-7.2,16-16,16Z"/>
    <path class="st4" d="M256,147.3c-8.8,0-16-7.2-16-16v-62.3c0-8.8,7.2-16,16-16s16,7.2,16,16v62.3c0,8.8-7.2,16-16,16Z"/>
    <path class="st3" d="M162.5,147.3c-8.8,0-16-7.2-16-16v-62.3c0-8.8,7.2-16,16-16s16,7.2,16,16v62.3c0,8.8-7.2,16-16,16Z"/>
    <path class="st2" d="M315,331h-118c-8.8,0-16-7.2-16-16v-118c0-8.8,7.2-16,16-16h118c8.8,0,16,7.2,16,16v118c0,8.8-7.2,16-16,16ZM213,299h86v-86h-86v86Z"/>
    <path class="st4" d="M396.7,332.7h-32v-185.3h-124.6v-32h140.6c8.8,0,16,7.2,16,16v201.3Z"/>
    <path class="st1" d="M162.5,459c-8.8,0-16-7.2-16-16v-62.3c0-8.8,7.2-16,16-16s16,7.2,16,16v62.3c0,8.8-7.2,16-16,16Z"/>
    <path class="st1" d="M256,459c-8.8,0-16-7.2-16-16v-62.3c0-8.8,7.2-16,16-16s16,7.2,16,16v62.3c0,8.8-7.2,16-16,16Z"/>
    <path class="st1" d="M349.5,459c-8.8,0-16-7.2-16-16v-62.3c0-8.8,7.2-16,16-16s16,7.2,16,16v62.3c0,8.8-7.2,16-16,16Z"/>
    <path class="st3" d="M131.3,178.5h-62.3c-8.8,0-16-7.2-16-16s7.2-16,16-16h62.3c8.8,0,16,7.2,16,16s-7.2,16-16,16Z"/>
    <path class="st3" d="M131.3,272h-62.3c-8.8,0-16-7.2-16-16s7.2-16,16-16h62.3c8.8,0,16,7.2,16,16s-7.2,16-16,16Z"/>
    <path class="st3" d="M131.3,364.7h-62.3c-8.8,0-16-7.2-16-16s7.2-16,16-16h62.3c8.8,0,16,7.2,16,16s-7.2,16-16,16Z"/>
  </g>
</svg>