<?xml version="1.0" encoding="UTF-8"?>
<svg id="standard_product_icon" xmlns="http://www.w3.org/2000/svg" version="1.1" viewBox="0 0 512 512">
  <!-- Generator: Adobe Illustrator 29.3.1, SVG Export Plug-In . SVG Version: 2.1.0 Build 151)  -->
  <g id="bounding_box">
    <rect width="512" height="512" fill="none"/>
  </g>
  <g id="art">
    <path d="M427.491,255.84l-.094.078.054.082-113.231,170h-89.649l-18.572,10.852-2.762,21.148h107.034c13.106,0,25.355-6.637,32.767-17.755l103.689-155.551-1.929-24.73-17.307-4.124h0Z" fill="#fbbc04"/>
    <path d="M199.354,234.122l-50.14-75.209-19.216,6.336v22.505l45.506,68.246-45.506,68.246v20.532l19.216,8.31,50.139-75.209c8.861-13.291,8.861-30.467,0-43.757h.001Z" fill="#34a853"/>
    <path d="M191.939,417.214h0l-107.41-161.214,107.422-161.232.023-20.933-18.926-7.42c-1.484,1.581-2.86,3.284-4.087,5.124L60.636,234.044c-8.848,13.273-8.848,30.425,0,43.694l108.326,162.508c1.248,1.871,2.643,3.603,4.145,5.21,0,.001.002.002.003.003l18.865-6.957-.035-21.287h-.001Z" fill="#4285f4"/>
    <path d="M299.445,256l-107.505,161.214h0l-18.83,28.245c7.425,7.939,17.72,12.541,28.619,12.541h1.509l21.334-32,94.139-141.103-3.173-23.944-16.093-4.953Z" fill="#34a853"/>
    <path d="M451.364,234.045l-108.326-162.508c-7.322-10.981-19.57-17.537-32.767-17.537h-108.543c-10.973,0-21.279,4.544-28.654,12.385l18.899,28.349-.023.034h0l.012-.019,107.481,161.251,19.266,28.897,4.645-6.962c8.859-13.29,8.859-30.466,0-43.755l-98.767-148.181h89.632l113.177,169.918.094-.078,19.236,28.854,4.636-6.954c8.849-13.271,8.849-30.422.001-43.694h0Z" fill="#ea4335"/>
  </g>
</svg>