<?xml version="1.0" encoding="UTF-8"?>
<svg id="standard_product_icon" xmlns="http://www.w3.org/2000/svg" version="1.1" viewBox="0 0 512 512">
  <!-- Generator: Adobe Illustrator 29.2.1, SVG Export Plug-In . SVG Version: 2.1.0 Build 116)  -->
  <g id="bounding_box">
    <rect width="512" height="512" fill="none"/>
  </g>
  <g id="art">
    <path d="M144.1,181.44c-8.837,0-16-7.16-16-15.993v-79.793c0-17.637,14.355-31.987,32-31.987h266.4c17.645,0,32,14.35,32,31.987v21.291c0,8.833-7.163,15.993-16,15.993s-16-7.16-16-15.993v-21.291H160.1v79.793c0,8.833-7.163,15.993-16,15.993Z" fill="#9aa0a6"/>
    <path d="M69.5,458.5c-4.095,0-8.189-1.562-11.313-4.685-6.249-6.245-6.249-16.372,0-22.618l165.794-165.726c6.248-6.245,16.379-6.245,22.627,0,6.249,6.245,6.249,16.372,0,22.618l-165.794,165.726c-3.124,3.123-7.219,4.685-11.313,4.685h0Z" fill="#9aa0a6"/>
    <path d="M239.956,383.874c-8.837,0-16-7.16-16-15.993v-79.767h-79.8c-8.837,0-16-7.16-16-15.993s7.163-15.993,16-15.993h95.8c8.837,0,16,7.16,16,15.993v95.76c0,8.833-7.163,15.993-16,15.993Z" fill="#4285f4"/>
    <path d="M426.513,383.931h-79.501c-8.616,0-16.032-6.621-16.434-15.227-.429-9.182,6.891-16.76,15.982-16.76h79.939V53.665h0c17.673,0,32,14.327,32,32v266.279c0,17.666-14.321,31.987-31.987,31.987h.001Z" fill="#4285f4"/>
  </g>
</svg>