<?xml version="1.0" encoding="UTF-8"?>
<svg id="standard_product_icon" xmlns="http://www.w3.org/2000/svg" version="1.1" viewBox="0 0 512 512">
  <!-- Generator: Adobe Illustrator 29.1.0, SVG Export Plug-In . SVG Version: 2.1.0 Build 142)  -->
  <defs>
    <style>
      .st0 {
        fill: none;
      }

      .st1 {
        fill: #4285f4;
      }

      .st2 {
        fill: #34a853;
      }

      .st3 {
        fill: #fbbc04;
      }

      .st4 {
        fill: #ea4335;
      }
    </style>
  </defs>
  <rect id="bounding_box" class="st0" width="512" height="512"/>
  <g id="art">
    <path class="st4" d="M131.4,458.2c-42.8,0-77.7-35.4-77.7-78.9v-246.8c0-43.5,34.8-78.9,77.7-78.9s77.7,35.4,77.7,78.9v246.8c0,43.5-34.9,78.9-77.7,78.9ZM131.4,85.8c-25.2,0-45.7,21-45.7,46.9v246.8c0,25.8,20.5,46.9,45.7,46.9s45.7-21,45.7-46.9v-246.8c0-25.8-20.5-46.9-45.7-46.9h0Z"/>
    <path class="st1" d="M131.4,458.2c-42.8,0-77.7-35.4-77.7-78.9v-123.4h32v123.4c0,25.8,20.5,46.9,45.7,46.9s45.7-21,45.7-46.9v-60.5h32v60.5c0,43.5-34.9,78.9-77.7,78.9Z"/>
    <path class="st2" d="M380.5,458.2c-42.8,0-77.7-35.4-77.7-78.9v-246.8c0-43.5,34.9-78.9,77.7-78.9s77.7,35.4,77.7,78.9v246.8c0,43.5-34.9,78.9-77.7,78.9ZM380.5,85.8c-25.2,0-45.7,21-45.7,46.9v246.8c0,25.8,20.5,46.9,45.7,46.9s45.7-21,45.7-46.9v-246.8c0-25.8-20.5-46.9-45.7-46.9h0Z"/>
    <path class="st1" d="M458.2,256h-32v-123.4c0-25.8-20.5-46.9-45.7-46.9s-45.7,21-45.7,46.9v60.5h-32v-60.5c0-43.5,34.9-78.9,77.7-78.9s77.7,35.4,77.7,78.9v123.4Z"/>
    <path class="st3" d="M379.4,333.7h-246.8c-43.5,0-78.9-34.9-78.9-77.7s35.4-77.7,78.9-77.7h246.8c43.5,0,78.9,34.8,78.9,77.7s-35.4,77.7-78.9,77.7ZM132.6,210.3c-25.8,0-46.9,20.5-46.9,45.7s21,45.7,46.9,45.7h246.8c25.8,0,46.9-20.5,46.9-45.7s-21-45.7-46.9-45.7h-246.8Z"/>
    <rect class="st4" x="177.1" y="141.6" width="32" height="102.2"/>
    <rect class="st2" x="302.9" y="280.2" width="32" height="70.5"/>
  </g>
</svg>