<?xml version="1.0" encoding="UTF-8" standalone="no"?>
<!DOCTYPE svg PUBLIC "-//W3C//DTD SVG 1.1//EN"
 "http://www.w3.org/Graphics/SVG/1.1/DTD/svg11.dtd">
<!-- Generated by graphviz version 13.1.2 (20250808.2320)
 -->
<!-- Pages: 1 -->
<svg width="3936pt" height="2572pt"
 viewBox="0.00 0.00 3936.00 2572.00" xmlns="http://www.w3.org/2000/svg" xmlns:xlink="http://www.w3.org/1999/xlink">
<g id="graph0" class="graph" transform="scale(1 1) rotate(0) translate(108 2464.4)">
<polygon fill="white" stroke="none" points="-108,108 -108,-2464.4 3828,-2464.4 3828,108 -108,108"/>
<g id="clust1" class="cluster">
<title>cluster_AWSGroup.248</title>
<polygon fill="none" stroke="black" stroke-width="2" points="0,-346.8 0,-2106.3 3720,-2106.3 3720,-346.8 0,-346.8"/>
<image xlink:href="/Users/patrick/git/terravision/resource_images/aws/general/aws.png" width="46px" height="46px" preserveAspectRatio="xMinYMin meet" x="0.025" y="-2105.5"/>
<text xml:space="preserve" text-anchor="start" x="50.03" y="-2076.7" font-family="Sans-Serif" font-size="14.00" fill="#2d3436">AWS Cloud</text>
</g>
<g id="clust2" class="cluster">
<title>cluster_VPCgroup.574</title>
<polygon fill="none" stroke="darkgreen" stroke-width="2" points="250,-446.8 250,-1580.5 3620,-1580.5 3620,-446.8 250,-446.8"/>
<image xlink:href="/Users/patrick/git/terravision/resource_images/aws/general/vpc.png" width="46px" height="46px" preserveAspectRatio="xMinYMin meet" x="249.85" y="-1579.7"/>
<text xml:space="preserve" text-anchor="start" x="299.85" y="-1550.9" font-family="Sans-Serif" font-size="14.00" fill="#2d3436">VPC Main</text>
</g>
<g id="clust3" class="cluster">
<title>cluster_AvailabilityZone.902</title>
<polygon fill="none" stroke="#3399ff" stroke-width="2" stroke-dasharray="5,2" points="300,-808 300,-1472.5 3570,-1472.5 3570,-808 300,-808"/>
<text xml:space="preserve" text-anchor="start" x="1755.38" y="-1438.08" font-family="Sans-Serif" font-size="30.00" fill="#3399ff">Availability Zone EU West1</text>
</g>
<g id="clust4" class="cluster">
<title>cluster_SubnetGroup.770</title>
<polygon fill="#deebf7" stroke="#deebf7" stroke-width="2" points="400,-908 400,-1329.8 912,-1329.8 912,-908 400,-908"/>
<image xlink:href="/Users/patrick/git/terravision/resource_images/aws/network/private_subnet.png" width="46px" height="46px" preserveAspectRatio="xMinYMin meet" x="400.1" y="-1329"/>
<text xml:space="preserve" text-anchor="start" x="450.1" y="-1300.2" font-family="Sans-Serif" font-size="14.00" fill="#2d3436">Subnet PrivateSubnets</text>
</g>
<g id="clust5" class="cluster">
<title>cluster_SecurityGroup.41</title>
<polygon fill="none" stroke="red" stroke-width="2" points="450,-958 450,-1221.8 712,-1221.8 712,-958 450,-958"/>
<text xml:space="preserve" text-anchor="start" x="459.88" y="-1202.5" font-family="Sans-Serif" font-size="14.00" fill="red">Security Group Allow StrictEC2 Instance</text>
</g>
<g id="clust6" class="cluster">
<title>cluster_SubnetGroup.39</title>
<polygon fill="#deebf7" stroke="#deebf7" stroke-width="2" points="1012,-958 1012,-1252.8 1220,-1252.8 1220,-958 1012,-958"/>
<image xlink:href="/Users/patrick/git/terravision/resource_images/aws/network/private_subnet.png" width="46px" height="46px" preserveAspectRatio="xMinYMin meet" x="1012.1" y="-1252"/>
<text xml:space="preserve" text-anchor="start" x="1062.1" y="-1223.2" font-family="Sans-Serif" font-size="14.00" fill="#2d3436">Subnet PrivateSubnets</text>
</g>
<g id="clust7" class="cluster">
<title>cluster_SubnetGroup.389</title>
<polygon fill="#deebf7" stroke="#deebf7" stroke-width="2" points="1320,-958 1320,-1252.8 1528,-1252.8 1528,-958 1320,-958"/>
<image xlink:href="/Users/patrick/git/terravision/resource_images/aws/network/private_subnet.png" width="46px" height="46px" preserveAspectRatio="xMinYMin meet" x="1320.1" y="-1252"/>
<text xml:space="preserve" text-anchor="start" x="1370.1" y="-1223.2" font-family="Sans-Serif" font-size="14.00" fill="#2d3436">Subnet PrivateSubnets</text>
</g>
<g id="clust8" class="cluster">
<title>cluster_SubnetGroup.31</title>
<polygon fill="#f2f7ee" stroke="#f2f7ee" stroke-width="2" points="1628,-908 1628,-1329.8 2380,-1329.8 2380,-908 1628,-908"/>
<image xlink:href="/Users/patrick/git/terravision/resource_images/aws/network/public_subnet.png" width="47px" height="46px" preserveAspectRatio="xMinYMin meet" x="1628.05" y="-1329"/>
<text xml:space="preserve" text-anchor="start" x="1679.05" y="-1300.2" font-family="Sans-Serif" font-size="14.00" fill="#2d3436">Subnet Public Subnets</text>
</g>
<g id="clust9" class="cluster">
<title>cluster_SecurityGroup.282</title>
<polygon fill="none" stroke="red" stroke-width="2" points="1678,-958 1678,-1221.8 1935,-1221.8 1935,-958 1678,-958"/>
<text xml:space="preserve" text-anchor="start" x="1687.62" y="-1202.5" font-family="Sans-Serif" font-size="14.00" fill="red">Security Group Allow StrictBastion Host</text>
</g>
<g id="clust10" class="cluster">
<title>cluster_SubnetGroup.30</title>
<polygon fill="#f2f7ee" stroke="#f2f7ee" stroke-width="2" points="2480,-958 2480,-1252.8 2925,-1252.8 2925,-958 2480,-958"/>
<image xlink:href="/Users/patrick/git/terravision/resource_images/aws/network/public_subnet.png" width="47px" height="46px" preserveAspectRatio="xMinYMin meet" x="2480.05" y="-1252"/>
<text xml:space="preserve" text-anchor="start" x="2531.05" y="-1223.2" font-family="Sans-Serif" font-size="14.00" fill="#2d3436">Subnet Public Subnets</text>
</g>
<g id="clust11" class="cluster">
<title>cluster_SubnetGroup.585</title>
<polygon fill="#f2f7ee" stroke="#f2f7ee" stroke-width="2" points="3025,-958 3025,-1252.8 3470,-1252.8 3470,-958 3025,-958"/>
<image xlink:href="/Users/patrick/git/terravision/resource_images/aws/network/public_subnet.png" width="47px" height="46px" preserveAspectRatio="xMinYMin meet" x="3025.05" y="-1252"/>
<text xml:space="preserve" text-anchor="start" x="3076.05" y="-1223.2" font-family="Sans-Serif" font-size="14.00" fill="#2d3436">Subnet Public Subnets</text>
</g>
<g id="clust12" class="cluster">
<title>cluster_AvailabilityZone.813</title>
<polygon fill="none" stroke="#3399ff" stroke-width="2" stroke-dasharray="5,2" points="250,-446.8 250,-1580.5 3620,-1580.5 3620,-446.8 250,-446.8"/>
<text xml:space="preserve" text-anchor="start" x="125.98" y="-1543.58" font-family="Sans-Serif" font-size="30.00" fill="#3399ff">Availability Zone EU West1</text>
</g>
<g id="clust13" class="cluster">
<title>cluster_SubnetGroup.860</title>
<polygon fill="#deebf7" stroke="#deebf7" stroke-width="2" points="250,-446.8 250,-1580.5 3620,-1580.5 3620,-446.8 250,-446.8"/>
<image xlink:href="/Users/patrick/git/terravision/resource_images/aws/network/private_subnet.png" width="46px" height="46px" preserveAspectRatio="xMinYMin meet" x="211.6" y="-1579.7"/>
<text xml:space="preserve" text-anchor="start" x="261.6" y="-1550.9" font-family="Sans-Serif" font-size="14.00" fill="#2d3436">Subnet PrivateSubnets</text>
</g>
<g id="clust14" class="cluster">
<title>cluster_SecurityGroup.60</title>
<polygon fill="none" stroke="red" stroke-width="2" points="250,-446.8 250,-1580.5 3620,-1580.5 3620,-446.8 250,-446.8"/>
<text xml:space="preserve" text-anchor="start" x="184.48" y="-1550.9" font-family="Sans-Serif" font-size="14.00" fill="red">Security Group Allow StrictEC2 Instance</text>
</g>
<g id="clust15" class="cluster">
<title>cluster_SubnetGroup.224</title>
<polygon fill="#deebf7" stroke="#deebf7" stroke-width="2" points="250,-446.8 250,-1580.5 3620,-1580.5 3620,-446.8 250,-446.8"/>
<image xlink:href="/Users/patrick/git/terravision/resource_images/aws/network/private_subnet.png" width="46px" height="46px" preserveAspectRatio="xMinYMin meet" x="211.6" y="-1579.7"/>
<text xml:space="preserve" text-anchor="start" x="261.6" y="-1550.9" font-family="Sans-Serif" font-size="14.00" fill="#2d3436">Subnet PrivateSubnets</text>
</g>
<g id="clust16" class="cluster">
<title>cluster_SubnetGroup.619</title>
<polygon fill="#deebf7" stroke="#deebf7" stroke-width="2" points="250,-446.8 250,-1580.5 3620,-1580.5 3620,-446.8 250,-446.8"/>
<image xlink:href="/Users/patrick/git/terravision/resource_images/aws/network/private_subnet.png" width="46px" height="46px" preserveAspectRatio="xMinYMin meet" x="211.6" y="-1579.7"/>
<text xml:space="preserve" text-anchor="start" x="261.6" y="-1550.9" font-family="Sans-Serif" font-size="14.00" fill="#2d3436">Subnet PrivateSubnets</text>
</g>
<g id="clust17" class="cluster">
<title>cluster_SubnetGroup.60</title>
<polygon fill="#f2f7ee" stroke="#f2f7ee" stroke-width="2" points="250,-446.8 250,-1580.5 3620,-1580.5 3620,-446.8 250,-446.8"/>
<image xlink:href="/Users/patrick/git/terravision/resource_images/aws/network/public_subnet.png" width="47px" height="46px" preserveAspectRatio="xMinYMin meet" x="211.85" y="-1579.7"/>
<text xml:space="preserve" text-anchor="start" x="262.85" y="-1550.9" font-family="Sans-Serif" font-size="14.00" fill="#2d3436">Subnet Public Subnets</text>
</g>
<g id="clust18" class="cluster">
<title>cluster_SecurityGroup.692</title>
<polygon fill="none" stroke="red" stroke-width="2" points="250,-446.8 250,-1580.5 3620,-1580.5 3620,-446.8 250,-446.8"/>
<text xml:space="preserve" text-anchor="start" x="186.73" y="-1550.9" font-family="Sans-Serif" font-size="14.00" fill="red">Security Group Allow StrictBastion Host</text>
</g>
<g id="clust19" class="cluster">
<title>cluster_SubnetGroup.510</title>
<polygon fill="#f2f7ee" stroke="#f2f7ee" stroke-width="2" points="250,-446.8 250,-1580.5 3620,-1580.5 3620,-446.8 250,-446.8"/>
<image xlink:href="/Users/patrick/git/terravision/resource_images/aws/network/public_subnet.png" width="47px" height="46px" preserveAspectRatio="xMinYMin meet" x="211.85" y="-1579.7"/>
<text xml:space="preserve" text-anchor="start" x="262.85" y="-1550.9" font-family="Sans-Serif" font-size="14.00" fill="#2d3436">Subnet Public Subnets</text>
</g>
<g id="clust20" class="cluster">
<title>cluster_SubnetGroup.197</title>
<polygon fill="#f2f7ee" stroke="#f2f7ee" stroke-width="2" points="250,-446.8 250,-1580.5 3620,-1580.5 3620,-446.8 250,-446.8"/>
<image xlink:href="/Users/patrick/git/terravision/resource_images/aws/network/public_subnet.png" width="47px" height="46px" preserveAspectRatio="xMinYMin meet" x="211.85" y="-1579.7"/>
<text xml:space="preserve" text-anchor="start" x="262.85" y="-1550.9" font-family="Sans-Serif" font-size="14.00" fill="#2d3436">Subnet Public Subnets</text>
</g>
<g id="clust21" class="cluster">
<title>cluster_AvailabilityZone.282</title>
<polygon fill="none" stroke="#3399ff" stroke-width="2" stroke-dasharray="5,2" points="250,-446.8 250,-1580.5 3620,-1580.5 3620,-446.8 250,-446.8"/>
<text xml:space="preserve" text-anchor="start" x="125.98" y="-1543.58" font-family="Sans-Serif" font-size="30.00" fill="#3399ff">Availability Zone EU West1</text>
</g>
<g id="clust22" class="cluster">
<title>cluster_SubnetGroup.666</title>
<polygon fill="#deebf7" stroke="#deebf7" stroke-width="2" points="250,-446.8 250,-1580.5 3620,-1580.5 3620,-446.8 250,-446.8"/>
<image xlink:href="/Users/patrick/git/terravision/resource_images/aws/network/private_subnet.png" width="46px" height="46px" preserveAspectRatio="xMinYMin meet" x="211.6" y="-1579.7"/>
<text xml:space="preserve" text-anchor="start" x="261.6" y="-1550.9" font-family="Sans-Serif" font-size="14.00" fill="#2d3436">Subnet PrivateSubnets</text>
</g>
<g id="clust23" class="cluster">
<title>cluster_SecurityGroup.830</title>
<polygon fill="none" stroke="red" stroke-width="2" points="250,-446.8 250,-1580.5 3620,-1580.5 3620,-446.8 250,-446.8"/>
<text xml:space="preserve" text-anchor="start" x="184.48" y="-1550.9" font-family="Sans-Serif" font-size="14.00" fill="red">Security Group Allow StrictEC2 Instance</text>
</g>
<g id="clust24" class="cluster">
<title>cluster_SubnetGroup.259</title>
<polygon fill="#deebf7" stroke="#deebf7" stroke-width="2" points="250,-446.8 250,-1580.5 3620,-1580.5 3620,-446.8 250,-446.8"/>
<image xlink:href="/Users/patrick/git/terravision/resource_images/aws/network/private_subnet.png" width="46px" height="46px" preserveAspectRatio="xMinYMin meet" x="211.6" y="-1579.7"/>
<text xml:space="preserve" text-anchor="start" x="261.6" y="-1550.9" font-family="Sans-Serif" font-size="14.00" fill="#2d3436">Subnet PrivateSubnets</text>
</g>
<g id="clust25" class="cluster">
<title>cluster_SubnetGroup.855</title>
<polygon fill="#deebf7" stroke="#deebf7" stroke-width="2" points="250,-446.8 250,-1580.5 3620,-1580.5 3620,-446.8 250,-446.8"/>
<image xlink:href="/Users/patrick/git/terravision/resource_images/aws/network/private_subnet.png" width="46px" height="46px" preserveAspectRatio="xMinYMin meet" x="211.6" y="-1579.7"/>
<text xml:space="preserve" text-anchor="start" x="261.6" y="-1550.9" font-family="Sans-Serif" font-size="14.00" fill="#2d3436">Subnet PrivateSubnets</text>
</g>
<g id="clust26" class="cluster">
<title>cluster_SubnetGroup.228</title>
<polygon fill="#f2f7ee" stroke="#f2f7ee" stroke-width="2" points="250,-446.8 250,-1580.5 3620,-1580.5 3620,-446.8 250,-446.8"/>
<image xlink:href="/Users/patrick/git/terravision/resource_images/aws/network/public_subnet.png" width="47px" height="46px" preserveAspectRatio="xMinYMin meet" x="211.85" y="-1579.7"/>
<text xml:space="preserve" text-anchor="start" x="262.85" y="-1550.9" font-family="Sans-Serif" font-size="14.00" fill="#2d3436">Subnet Public Subnets</text>
</g>
<g id="clust27" class="cluster">
<title>cluster_SecurityGroup.451</title>
<polygon fill="none" stroke="red" stroke-width="2" points="250,-446.8 250,-1580.5 3620,-1580.5 3620,-446.8 250,-446.8"/>
<text xml:space="preserve" text-anchor="start" x="186.73" y="-1550.9" font-family="Sans-Serif" font-size="14.00" fill="red">Security Group Allow StrictBastion Host</text>
</g>
<g id="clust28" class="cluster">
<title>cluster_SubnetGroup.646</title>
<polygon fill="#f2f7ee" stroke="#f2f7ee" stroke-width="2" points="250,-446.8 250,-1580.5 3620,-1580.5 3620,-446.8 250,-446.8"/>
<image xlink:href="/Users/patrick/git/terravision/resource_images/aws/network/public_subnet.png" width="47px" height="46px" preserveAspectRatio="xMinYMin meet" x="211.85" y="-1579.7"/>
<text xml:space="preserve" text-anchor="start" x="262.85" y="-1550.9" font-family="Sans-Serif" font-size="14.00" fill="#2d3436">Subnet Public Subnets</text>
</g>
<g id="clust29" class="cluster">
<title>cluster_SubnetGroup.389</title>
<polygon fill="#f2f7ee" stroke="#f2f7ee" stroke-width="2" points="250,-446.8 250,-1580.5 3620,-1580.5 3620,-446.8 250,-446.8"/>
<image xlink:href="/Users/patrick/git/terravision/resource_images/aws/network/public_subnet.png" width="47px" height="46px" preserveAspectRatio="xMinYMin meet" x="211.85" y="-1579.7"/>
<text xml:space="preserve" text-anchor="start" x="262.85" y="-1550.9" font-family="Sans-Serif" font-size="14.00" fill="#2d3436">Subnet Public Subnets</text>
</g>
<g id="clust30" class="cluster">
<title>cluster_GenericGroup.964</title>
<polygon fill="none" stroke="black" stroke-width="2" stroke-dasharray="5,2" points="100,-1588.5 100,-1948.3 645,-1948.3 645,-1588.5 100,-1588.5"/>
<text xml:space="preserve" text-anchor="middle" x="168.6" y="-1935.9" font-family="Sans-Serif" font-size="14.00" fill="#2d3436">Group Shared Services</text>
</g>
<!-- aws.compute.EC2Instance.40330af915cd4020875a494725d0f03f -->
<g id="node1" class="node">
<title>aws.compute.EC2Instance.40330af915cd4020875a494725d0f03f</title>
<image xlink:href="/Users/patrick/git/terravision/resource_images/aws/compute/ec2-instance.png" width="100.8px" height="100.8px" preserveAspectRatio="xMinYMin meet" x="516.6" y="-1126.8"/>
<text xml:space="preserve" text-anchor="middle" x="567" y="-1009.7" font-family="Sans-Serif" font-size="14.00" fill="#2d3436">EC2 Instance</text>
</g>
<!-- aws.network.RouteTable.b3f960f1b14446979a91626e61bec7c4 -->
<g id="node2" class="node">
<title>aws.network.RouteTable.b3f960f1b14446979a91626e61bec7c4</title>
<image xlink:href="/Users/patrick/git/terravision/resource_images/aws/network/route-table.png" width="100.8px" height="100.8px" preserveAspectRatio="xMinYMin meet" x="761.6" y="-1126.8"/>
<text xml:space="preserve" text-anchor="middle" x="812" y="-1009.7" font-family="Sans-Serif" font-size="14.00" fill="#2d3436">Route Table Private</text>
</g>
<!-- aws.network.RouteTable.8a3c8ff2e27145f9805ab36f101c2ebc -->
<g id="node3" class="node">
<title>aws.network.RouteTable.8a3c8ff2e27145f9805ab36f101c2ebc</title>
<image xlink:href="/Users/patrick/git/terravision/resource_images/aws/network/route-table.png" width="100.8px" height="100.8px" preserveAspectRatio="xMinYMin meet" x="1065.6" y="-1126.8"/>
<text xml:space="preserve" text-anchor="middle" x="1116" y="-1009.7" font-family="Sans-Serif" font-size="14.00" fill="#2d3436">Route Table Private</text>
</g>
<!-- aws.network.RouteTable.bc32e75b47f04b5fbf61932e088f29e4 -->
<g id="node4" class="node">
<title>aws.network.RouteTable.bc32e75b47f04b5fbf61932e088f29e4</title>
<image xlink:href="/Users/patrick/git/terravision/resource_images/aws/network/route-table.png" width="100.8px" height="100.8px" preserveAspectRatio="xMinYMin meet" x="1373.6" y="-1126.8"/>
<text xml:space="preserve" text-anchor="middle" x="1424" y="-1009.7" font-family="Sans-Serif" font-size="14.00" fill="#2d3436">Route Table Private</text>
</g>
<!-- aws.compute.EC2Instance.fe3638b1af6c4789898f3cac7ce02941 -->
<g id="node5" class="node">
<title>aws.compute.EC2Instance.fe3638b1af6c4789898f3cac7ce02941</title>
<image xlink:href="/Users/patrick/git/terravision/resource_images/aws/compute/ec2-instance.png" width="100.8px" height="100.8px" preserveAspectRatio="xMinYMin meet" x="1733.6" y="-1126.8"/>
<text xml:space="preserve" text-anchor="middle" x="1784" y="-1009.7" font-family="Sans-Serif" font-size="14.00" fill="#2d3436">EC2 Bastion Host</text>
</g>
<!-- aws.network.NATGateway.04c25498edc14f1787cfaafd6e45b963 -->
<g id="node6" class="node">
<title>aws.network.NATGateway.04c25498edc14f1787cfaafd6e45b963</title>
<image xlink:href="/Users/patrick/git/terravision/resource_images/aws/network/nat-gateway.png" width="100.8px" height="100.8px" preserveAspectRatio="xMinYMin meet" x="1984.6" y="-1126.8"/>
<text xml:space="preserve" text-anchor="middle" x="2035" y="-1009.7" font-family="Sans-Serif" font-size="14.00" fill="#2d3436">NAT Gateway Gw</text>
</g>
<!-- aws.network.InternetGateway.ccadce9bd25a4da78860a3314f960927 -->
<g id="node12" class="node">
<title>aws.network.InternetGateway.ccadce9bd25a4da78860a3314f960927</title>
<image xlink:href="/Users/patrick/git/terravision/resource_images/aws/network/internet-gateway.png" width="100.8px" height="100.8px" preserveAspectRatio="xMinYMin meet" x="2529.6" y="-615.6"/>
<text xml:space="preserve" text-anchor="middle" x="2580" y="-498.5" font-family="Sans-Serif" font-size="14.00" fill="#2d3436">Internet Gateway IGW</text>
</g>
<!-- aws.network.NATGateway.04c25498edc14f1787cfaafd6e45b963&#45;&gt;aws.network.InternetGateway.ccadce9bd25a4da78860a3314f960927 -->
<g id="edge1" class="edge">
<title>aws.network.NATGateway.04c25498edc14f1787cfaafd6e45b963&#45;&gt;aws.network.InternetGateway.ccadce9bd25a4da78860a3314f960927</title>
<path fill="none" stroke="#7b8894" d="M2035,-1008.2C2035,-868.99 2035,-565 2035,-565 2035,-565 2518.2,-565 2518.2,-565"/>
<polygon fill="#7b8894" stroke="#7b8894" points="2518.19,-568.5 2528.19,-565 2518.19,-561.5 2518.19,-568.5"/>
</g>
<!-- aws.network.RouteTable.c3c363c367f54744a463f650e6ac11dd -->
<g id="node7" class="node">
<title>aws.network.RouteTable.c3c363c367f54744a463f650e6ac11dd</title>
<image xlink:href="/Users/patrick/git/terravision/resource_images/aws/network/route-table.png" width="100.8px" height="100.8px" preserveAspectRatio="xMinYMin meet" x="2229.6" y="-1126.8"/>
<text xml:space="preserve" text-anchor="middle" x="2280" y="-1009.7" font-family="Sans-Serif" font-size="14.00" fill="#2d3436">Route Table Public</text>
</g>
<!-- aws.network.NATGateway.c1734573fa48492f894975c03e576fe9 -->
<g id="node8" class="node">
<title>aws.network.NATGateway.c1734573fa48492f894975c03e576fe9</title>
<image xlink:href="/Users/patrick/git/terravision/resource_images/aws/network/nat-gateway.png" width="100.8px" height="100.8px" preserveAspectRatio="xMinYMin meet" x="2529.6" y="-1126.8"/>
<text xml:space="preserve" text-anchor="middle" x="2580" y="-1009.7" font-family="Sans-Serif" font-size="14.00" fill="#2d3436">NAT Gateway Gw</text>
</g>
<!-- aws.network.NATGateway.c1734573fa48492f894975c03e576fe9&#45;&gt;aws.network.InternetGateway.ccadce9bd25a4da78860a3314f960927 -->
<g id="edge2" class="edge">
<title>aws.network.NATGateway.c1734573fa48492f894975c03e576fe9&#45;&gt;aws.network.InternetGateway.ccadce9bd25a4da78860a3314f960927</title>
<path fill="none" stroke="#7b8894" d="M2580,-1008.3C2580,-1008.3 2580,-644.8 2580,-644.8"/>
<polygon fill="#7b8894" stroke="#7b8894" points="2583.5,-644.8 2580,-634.8 2576.5,-644.8 2583.5,-644.8"/>
</g>
<!-- aws.network.RouteTable.be5e30c978cf4873b8d76c787824b708 -->
<g id="node9" class="node">
<title>aws.network.RouteTable.be5e30c978cf4873b8d76c787824b708</title>
<image xlink:href="/Users/patrick/git/terravision/resource_images/aws/network/route-table.png" width="100.8px" height="100.8px" preserveAspectRatio="xMinYMin meet" x="2774.6" y="-1126.8"/>
<text xml:space="preserve" text-anchor="middle" x="2825" y="-1009.7" font-family="Sans-Serif" font-size="14.00" fill="#2d3436">Route Table Public</text>
</g>
<!-- aws.network.NATGateway.501f9b7d86df4459a158224249b0155d -->
<g id="node10" class="node">
<title>aws.network.NATGateway.501f9b7d86df4459a158224249b0155d</title>
<image xlink:href="/Users/patrick/git/terravision/resource_images/aws/network/nat-gateway.png" width="100.8px" height="100.8px" preserveAspectRatio="xMinYMin meet" x="3074.6" y="-1126.8"/>
<text xml:space="preserve" text-anchor="middle" x="3125" y="-1009.7" font-family="Sans-Serif" font-size="14.00" fill="#2d3436">NAT Gateway Gw</text>
</g>
<!-- aws.network.NATGateway.501f9b7d86df4459a158224249b0155d&#45;&gt;aws.network.InternetGateway.ccadce9bd25a4da78860a3314f960927 -->
<g id="edge3" class="edge">
<title>aws.network.NATGateway.501f9b7d86df4459a158224249b0155d&#45;&gt;aws.network.InternetGateway.ccadce9bd25a4da78860a3314f960927</title>
<path fill="none" stroke="#7b8894" d="M3125,-1008.2C3125,-868.99 3125,-565 3125,-565 3125,-565 2641.8,-565 2641.8,-565"/>
<polygon fill="#7b8894" stroke="#7b8894" points="2641.81,-561.5 2631.81,-565 2641.81,-568.5 2641.81,-561.5"/>
</g>
<!-- aws.network.RouteTable.92d11fd329e94e6f999f86a0c2eaf9b6 -->
<g id="node11" class="node">
<title>aws.network.RouteTable.92d11fd329e94e6f999f86a0c2eaf9b6</title>
<image xlink:href="/Users/patrick/git/terravision/resource_images/aws/network/route-table.png" width="100.8px" height="100.8px" preserveAspectRatio="xMinYMin meet" x="3319.6" y="-1126.8"/>
<text xml:space="preserve" text-anchor="middle" x="3370" y="-1009.7" font-family="Sans-Serif" font-size="14.00" fill="#2d3436">Route Table Public</text>
</g>
<!-- aws.general.InternetAlt1.84b70ea6041d4ba6bf034bad4d4d6084 -->
<g id="node18" class="node">
<title>aws.general.InternetAlt1.84b70ea6041d4ba6bf034bad4d4d6084</title>
<image xlink:href="/Users/patrick/git/terravision/resource_images/aws/general/internet-alt1.png" width="100.8px" height="100.8px" preserveAspectRatio="xMinYMin meet" x="2529.6" y="-118.8"/>
<text xml:space="preserve" text-anchor="middle" x="2580" y="-1.7" font-family="Sans-Serif" font-size="14.00" fill="#2d3436">Internet</text>
</g>
<!-- aws.network.InternetGateway.ccadce9bd25a4da78860a3314f960927&#45;&gt;aws.general.InternetAlt1.84b70ea6041d4ba6bf034bad4d4d6084 -->
<g id="edge6" class="edge">
<title>aws.network.InternetGateway.ccadce9bd25a4da78860a3314f960927&#45;&gt;aws.general.InternetAlt1.84b70ea6041d4ba6bf034bad4d4d6084</title>
<path fill="none" stroke="#7b8894" d="M2580,-496.9C2580,-496.9 2580,-148.24 2580,-148.24"/>
<polygon fill="#7b8894" stroke="#7b8894" points="2583.5,-148.24 2580,-138.24 2576.5,-148.24 2583.5,-148.24"/>
</g>
<!-- aws.compute.ElasticIP.4d671f15df814b70833e647da2e8dc34 -->
<g id="node13" class="node">
<title>aws.compute.ElasticIP.4d671f15df814b70833e647da2e8dc34</title>
<image xlink:href="/Users/patrick/git/terravision/resource_images/aws/compute/ec2-elastic-ip-address.png" width="100.8px" height="100.8px" preserveAspectRatio="xMinYMin meet" x="199.6" y="-1807.3"/>
<text xml:space="preserve" text-anchor="middle" x="250" y="-1690.2" font-family="Sans-Serif" font-size="14.00" fill="#2d3436">Elastic IP</text>
</g>
<!-- aws.security.IdentityAndAccessManagementIam.7970d85545774535a6082e1b978f9961 -->
<g id="node14" class="node">
<title>aws.security.IdentityAndAccessManagementIam.7970d85545774535a6082e1b978f9961</title>
<image xlink:href="/Users/patrick/git/terravision/resource_images/aws/security/identity-and-access-management-iam.png" width="100.8px" height="100.8px" preserveAspectRatio="xMinYMin meet" x="444.6" y="-1807.3"/>
<text xml:space="preserve" text-anchor="middle" x="495" y="-1690.2" font-family="Sans-Serif" font-size="14.00" fill="#2d3436">IAM Group Of Services</text>
</g>
<!-- aws.security.IdentityAndAccessManagementIamRole.8c1dd5dde0cb478ebe079e9981a8ef8f -->
<g id="node15" class="node">
<title>aws.security.IdentityAndAccessManagementIamRole.8c1dd5dde0cb478ebe079e9981a8ef8f</title>
<image xlink:href="/Users/patrick/git/terravision/resource_images/aws/security/identity-and-access-management-iam-role.png" width="100.8px" height="100.8px" preserveAspectRatio="xMinYMin meet" x="744.6" y="-1807.3"/>
<text xml:space="preserve" text-anchor="middle" x="795" y="-1690.2" font-family="Sans-Serif" font-size="14.00" fill="#2d3436">Role EC2 IAM</text>
</g>
<!-- aws.security.IdentityAndAccessManagementIamRole.8c1dd5dde0cb478ebe079e9981a8ef8f&#45;&gt;aws.compute.EC2Instance.40330af915cd4020875a494725d0f03f -->
<g id="edge4" class="edge">
<title>aws.security.IdentityAndAccessManagementIamRole.8c1dd5dde0cb478ebe079e9981a8ef8f&#45;&gt;aws.compute.EC2Instance.40330af915cd4020875a494725d0f03f</title>
<path fill="none" stroke="#7b8894" d="M755.93,-1688.9C755.93,-1516.4 755.93,-1076 755.93,-1076 755.93,-1076 628.65,-1076 628.65,-1076"/>
<polygon fill="#7b8894" stroke="#7b8894" points="628.64,-1072.5 618.64,-1076 628.64,-1079.5 628.64,-1072.5"/>
</g>
<!-- aws.security.IdentityAndAccessManagementIamPermissions.c8b2005813e84c83ba4151cde4fd91c0 -->
<g id="node16" class="node">
<title>aws.security.IdentityAndAccessManagementIamPermissions.c8b2005813e84c83ba4151cde4fd91c0</title>
<image xlink:href="/Users/patrick/git/terravision/resource_images/aws/security/identity-and-access-management-iam-permissions.png" width="100.8px" height="100.8px" preserveAspectRatio="xMinYMin meet" x="99.6" y="-1126.8"/>
<text xml:space="preserve" text-anchor="middle" x="150" y="-1010.3" font-family="Sans-Serif" font-size="14.00" fill="#2d3436">IAM Role Policy Attachment</text>
<text xml:space="preserve" text-anchor="middle" x="150" y="-995.3" font-family="Sans-Serif" font-size="14.00" fill="#2d3436">Attach Ssm</text>
</g>
<!-- aws.security.IdentityAndAccessManagementIamRole.8c1dd5dde0cb478ebe079e9981a8ef8f&#45;&gt;aws.security.IdentityAndAccessManagementIamPermissions.c8b2005813e84c83ba4151cde4fd91c0 -->
<g id="edge5" class="edge">
<title>aws.security.IdentityAndAccessManagementIamRole.8c1dd5dde0cb478ebe079e9981a8ef8f&#45;&gt;aws.security.IdentityAndAccessManagementIamPermissions.c8b2005813e84c83ba4151cde4fd91c0</title>
<path fill="none" stroke="#7b8894" d="M750.27,-1688.7C750.27,-1530.5 750.27,-1152 750.27,-1152 750.27,-1152 211.66,-1152 211.66,-1152"/>
<polygon fill="#7b8894" stroke="#7b8894" points="211.66,-1148.5 201.66,-1152 211.66,-1155.5 211.66,-1148.5"/>
</g>
<!-- aws.general.Blank.eda655fdbe3e4c429c96f9d2428089b1 -->
<g id="node17" class="node">
<title>aws.general.Blank.eda655fdbe3e4c429c96f9d2428089b1</title>
<image xlink:href="/Users/patrick/git/terravision/resource_images/aws/general/blank.png" width="100.8px" height="100.8px" preserveAspectRatio="xMinYMin meet" x="2254.6" y="-1807.3"/>
<text xml:space="preserve" text-anchor="middle" x="2305" y="-1690.8" font-family="Sans-Serif" font-size="14.00" fill="#2d3436">Security Group Rule Ingress</text>
<text xml:space="preserve" text-anchor="middle" x="2305" y="-1675.8" font-family="Sans-Serif" font-size="14.00" fill="#2d3436">Ssh</text>
</g>
<!-- None.None.Node.98dd56595db24ee5b9846faa5a7dc193 -->
<g id="node19" class="node">
<title>None.None.Node.98dd56595db24ee5b9846faa5a7dc193</title>
<text xml:space="preserve" text-anchor="middle" x="1859.6" y="-2257.85" font-family="Sans-Serif" font-size="30.00" fill="#2d3436">Cloud Architecture Diagram</text>
</g>
<!-- None.None.Node.eb012c4654c346e8bc333e07d5cb716c -->
<g id="node20" class="node">
<title>None.None.Node.eb012c4654c346e8bc333e07d5cb716c</title>
<path fill="none" stroke="black" d="M971.6,-124.5C971.6,-124.5 2747.6,-124.5 2747.6,-124.5 2753.6,-124.5 2759.6,-130.5 2759.6,-136.5 2759.6,-136.5 2759.6,-257.5 2759.6,-257.5 2759.6,-263.5 2753.6,-269.5 2747.6,-269.5 2747.6,-269.5 971.6,-269.5 971.6,-269.5 965.6,-269.5 959.6,-263.5 959.6,-257.5 959.6,-257.5 959.6,-136.5 959.6,-136.5 959.6,-130.5 965.6,-124.5 971.6,-124.5"/>
<text xml:space="preserve" text-anchor="middle" x="1294.97" y="-189.28" font-family="Sans-Serif" font-size="18.00" fill="#2d3436">Machine generated using TerraVision</text>
<polyline fill="none" stroke="black" points="1630.35,-124.5 1630.35,-269.5"/>
<text xml:space="preserve" text-anchor="middle" x="1866.35" y="-225.9" font-family="Sans-Serif" font-size="18.00" fill="#2d3436">Timestamp:</text>
<polyline fill="none" stroke="black" points="1630.35,-197.75 2102.35,-197.75"/>
<text xml:space="preserve" text-anchor="middle" x="1866.35" y="-153.65" font-family="Sans-Serif" font-size="18.00" fill="#2d3436">Source:</text>
<polyline fill="none" stroke="black" points="2102.35,-124.5 2102.35,-269.5"/>
<text xml:space="preserve" text-anchor="middle" x="2430.97" y="-225.9" font-family="Sans-Serif" font-size="18.00" fill="#2d3436">2026&#45;01&#45;05 17:50:11.792320</text>
<polyline fill="none" stroke="black" points="2102.35,-197.75 2759.6,-197.75"/>
<text xml:space="preserve" text-anchor="middle" x="2430.97" y="-153.65" font-family="Sans-Serif" font-size="18.00" fill="#2d3436">(&#39;tests/json/bastion&#45;expected.json&#39;,)</text>
</g>
</g>
</svg>
