<?xml version="1.0" encoding="UTF-8" standalone="no"?>
<!DOCTYPE svg PUBLIC "-//W3C//DTD SVG 1.1//EN"
 "http://www.w3.org/Graphics/SVG/1.1/DTD/svg11.dtd">
<!-- Generated by graphviz version 6.0.1 (20220911.1526)
 -->
<!-- Title: Untitled Pages: 1 -->
<svg width="1959pt" height="2705pt"
 viewBox="0.00 0.00 1959.42 2704.55" xmlns="http://www.w3.org/2000/svg" xmlns:xlink="http://www.w3.org/1999/xlink">
<g id="graph0" class="graph" transform="scale(1 1) rotate(0) translate(72 2632.55)">
<title>Untitled</title>
<polygon fill="white" stroke="none" points="-72,72 -72,-2632.55 1887.42,-2632.55 1887.42,72 -72,72"/>
<text text-anchor="middle" x="907.71" y="-2532.55" font-family="Sans-Serif" font-size="30.00" fill="#2d3436">Untitled</text>
<g id="clust1" class="cluster">
<title>cluster_AWSgroup.395</title>
<polygon fill="none" stroke="black" stroke-width="2" points="0,0 0,-2153.39 1815.42,-2153.39 1815.42,0 0,0"/>
<image xlink:href="./resource_images/aws/general/aws.png" width="40px" height="40px" preserveAspectRatio="xMinYMin meet" x="10" y="-2147.39"/>
<text text-anchor="start" x="54" y="-2123.69" font-family="Sans-Serif" font-size="14.00" fill="#2d3436">AWS Cloud</text>
</g>
<!-- aws.database.Aurora.60b1beadc7094f62b41d42750338a8f2 -->
<g id="node1" class="node">
<title>aws.database.Aurora.60b1beadc7094f62b41d42750338a8f2</title>
<image xlink:href="/Users/parchugh/git/terravision/resource_images/aws/database/aurora-instance.png" width="101px" height="101px" preserveAspectRatio="xMinYMin meet" x="1276.58" y="-266.611"/>
<text text-anchor="middle" x="1327.08" y="-151.41" font-family="Sans-Serif" font-size="14.00" fill="#2d3436">1 RDS Aurora</text>
</g>
<!-- aws.network.VPCElasticNetworkInterface.3bae2c88cedb406cadf4b50467b4b04c -->
<g id="node2" class="node">
<title>aws.network.VPCElasticNetworkInterface.3bae2c88cedb406cadf4b50467b4b04c</title>
<image xlink:href="/Users/parchugh/git/terravision/resource_images/aws/network/vpc-elastic-network-interface.png" width="101px" height="101px" preserveAspectRatio="xMinYMin meet" x="685.728" y="-119"/>
<text text-anchor="middle" x="736.23" y="-3.8" font-family="Sans-Serif" font-size="14.00" fill="#2d3436">1 EFS Mount Targe</text>
</g>
<!-- aws.storage.ElasticFileSystemEFS.fd77180a1a184971b3bc1c16b07e5188 -->
<g id="node27" class="node">
<title>aws.storage.ElasticFileSystemEFS.fd77180a1a184971b3bc1c16b07e5188</title>
<image xlink:href="/Users/parchugh/git/terravision/resource_images/aws/storage/elastic-file-system-efs.png" width="101px" height="101px" preserveAspectRatio="xMinYMin meet" x="253.672" y="-213.118"/>
<text text-anchor="middle" x="304.17" y="-97.92" font-family="Sans-Serif" font-size="14.00" fill="#2d3436">Efs EFS File System</text>
</g>
<!-- aws.network.VPCElasticNetworkInterface.3bae2c88cedb406cadf4b50467b4b04c&#45;&gt;aws.storage.ElasticFileSystemEFS.fd77180a1a184971b3bc1c16b07e5188 -->
<g id="edge16" class="edge">
<title>aws.network.VPCElasticNetworkInterface.3bae2c88cedb406cadf4b50467b4b04c&#45;&gt;aws.storage.ElasticFileSystemEFS.fd77180a1a184971b3bc1c16b07e5188</title>
<path fill="none" stroke="#7b8894" d="M685.4,-115C685.4,-115 364.81,-115 364.81,-115"/>
<polygon fill="#7b8894" stroke="#7b8894" points="364.81,-111.5 354.81,-115 364.81,-118.5 364.81,-111.5"/>
</g>
<!-- aws.compute.Fargate.5f778a1f9204446b88bd940cb1c8eac5 -->
<g id="node3" class="node">
<title>aws.compute.Fargate.5f778a1f9204446b88bd940cb1c8eac5</title>
<image xlink:href="/Users/parchugh/git/terravision/resource_images/aws/compute/fargate.png" width="101px" height="101px" preserveAspectRatio="xMinYMin meet" x="925.327" y="-520.734"/>
<text text-anchor="middle" x="975.83" y="-405.53" font-family="Sans-Serif" font-size="14.00" fill="#2d3436">Ecs 1 Fargate</text>
</g>
<!-- aws.compute.Fargate.5f778a1f9204446b88bd940cb1c8eac5&#45;&gt;aws.database.Aurora.60b1beadc7094f62b41d42750338a8f2 -->
<g id="edge1" class="edge">
<title>aws.compute.Fargate.5f778a1f9204446b88bd940cb1c8eac5&#45;&gt;aws.database.Aurora.60b1beadc7094f62b41d42750338a8f2</title>
<path fill="none" stroke="#7b8894" d="M975.83,-401.57C975.83,-318.89 975.83,-191 975.83,-191 975.83,-191 1266.38,-191 1266.38,-191"/>
<polygon fill="#7b8894" stroke="#7b8894" points="1266.38,-194.5 1276.38,-191 1266.38,-187.5 1266.38,-194.5"/>
</g>
<!-- aws.compute.Fargate.5f778a1f9204446b88bd940cb1c8eac5&#45;&gt;aws.network.VPCElasticNetworkInterface.3bae2c88cedb406cadf4b50467b4b04c -->
<g id="edge2" class="edge">
<title>aws.compute.Fargate.5f778a1f9204446b88bd940cb1c8eac5&#45;&gt;aws.network.VPCElasticNetworkInterface.3bae2c88cedb406cadf4b50467b4b04c</title>
<path fill="none" stroke="#7b8894" d="M925.17,-418C864.79,-418 771.95,-418 771.95,-418 771.95,-418 771.95,-147.13 771.95,-147.13"/>
<polygon fill="#7b8894" stroke="#7b8894" points="775.45,-147.13 771.95,-137.13 768.45,-147.13 775.45,-147.13"/>
</g>
<!-- aws.management.Cloudwatch.5376a181556e4c4494ab3e142941288b -->
<g id="node25" class="node">
<title>aws.management.Cloudwatch.5376a181556e4c4494ab3e142941288b</title>
<image xlink:href="/Users/parchugh/git/terravision/resource_images/aws/management/cloudwatch.png" width="101px" height="101px" preserveAspectRatio="xMinYMin meet" x="1057.97" y="-121.996"/>
<text text-anchor="middle" x="1108.47" y="-6.8" font-family="Sans-Serif" font-size="14.00" fill="#2d3436">Cloudwatch Cloudwatc</text>
</g>
<!-- aws.compute.Fargate.5f778a1f9204446b88bd940cb1c8eac5&#45;&gt;aws.management.Cloudwatch.5376a181556e4c4494ab3e142941288b -->
<g id="edge17" class="edge">
<title>aws.compute.Fargate.5f778a1f9204446b88bd940cb1c8eac5&#45;&gt;aws.management.Cloudwatch.5376a181556e4c4494ab3e142941288b</title>
<path fill="none" stroke="#7b8894" d="M1026.51,-432C1061.67,-432 1102.22,-432 1102.22,-432 1102.22,-432 1102.22,-150.15 1102.22,-150.15"/>
<polygon fill="#7b8894" stroke="#7b8894" points="1105.72,-150.15 1102.22,-140.15 1098.72,-150.15 1105.72,-150.15"/>
</g>
<!-- aws.compute.ElasticContainerRegistry.1a1513bee7d54717a608751d0f775f03 -->
<g id="node26" class="node">
<title>aws.compute.ElasticContainerRegistry.1a1513bee7d54717a608751d0f775f03</title>
<image xlink:href="/Users/parchugh/git/terravision/resource_images/aws/compute/ec2-container-registry.png" width="101px" height="101px" preserveAspectRatio="xMinYMin meet" x="608.913" y="-570.332"/>
<text text-anchor="middle" x="659.41" y="-455.13" font-family="Sans-Serif" font-size="14.00" fill="#2d3436">Ecr Ecr Repository</text>
</g>
<!-- aws.compute.Fargate.5f778a1f9204446b88bd940cb1c8eac5&#45;&gt;aws.compute.ElasticContainerRegistry.1a1513bee7d54717a608751d0f775f03 -->
<g id="edge18" class="edge">
<title>aws.compute.Fargate.5f778a1f9204446b88bd940cb1c8eac5&#45;&gt;aws.compute.ElasticContainerRegistry.1a1513bee7d54717a608751d0f775f03</title>
<path fill="none" stroke="#7b8894" d="M924.99,-480C924.99,-480 720.12,-480 720.12,-480"/>
<polygon fill="#7b8894" stroke="#7b8894" points="720.12,-476.5 710.12,-480 720.12,-483.5 720.12,-476.5"/>
</g>
<!-- aws.management.SystemsManagerParameterStore.dfac7421880941908d430cdb5be82328 -->
<g id="node28" class="node">
<title>aws.management.SystemsManagerParameterStore.dfac7421880941908d430cdb5be82328</title>
<image xlink:href="/Users/parchugh/git/terravision/resource_images/aws/management/systems-manager-parameter-store.png" width="101px" height="101px" preserveAspectRatio="xMinYMin meet" x="639.824" y="-756.448"/>
<text text-anchor="middle" x="690.32" y="-641.25" font-family="Sans-Serif" font-size="14.00" fill="#2d3436">Ssmparam Ssm Paramet</text>
</g>
<!-- aws.compute.Fargate.5f778a1f9204446b88bd940cb1c8eac5&#45;&gt;aws.management.SystemsManagerParameterStore.dfac7421880941908d430cdb5be82328 -->
<g id="edge19" class="edge">
<title>aws.compute.Fargate.5f778a1f9204446b88bd940cb1c8eac5&#45;&gt;aws.management.SystemsManagerParameterStore.dfac7421880941908d430cdb5be82328</title>
<path fill="none" stroke="#7b8894" d="M925.14,-509C851.96,-509 725.37,-509 725.37,-509 725.37,-509 725.37,-627.34 725.37,-627.34"/>
<polygon fill="#7b8894" stroke="#7b8894" points="721.87,-627.34 725.37,-637.34 728.87,-627.34 721.87,-627.34"/>
</g>
<!-- aws.compute.ElasticContainerService.7e8b0c591405463cb1b75271bf5981b7 -->
<g id="node30" class="node">
<title>aws.compute.ElasticContainerService.7e8b0c591405463cb1b75271bf5981b7</title>
<image xlink:href="/Users/parchugh/git/terravision/resource_images/aws/compute/elastic-container-service.png" width="101px" height="101px" preserveAspectRatio="xMinYMin meet" x="781.299" y="-900.57"/>
<text text-anchor="middle" x="831.8" y="-785.37" font-family="Sans-Serif" font-size="14.00" fill="#2d3436">Ecs ECS Cluster</text>
</g>
<!-- aws.compute.Fargate.5f778a1f9204446b88bd940cb1c8eac5&#45;&gt;aws.compute.ElasticContainerService.7e8b0c591405463cb1b75271bf5981b7 -->
<g id="edge20" class="edge">
<title>aws.compute.Fargate.5f778a1f9204446b88bd940cb1c8eac5&#45;&gt;aws.compute.ElasticContainerService.7e8b0c591405463cb1b75271bf5981b7</title>
<path fill="none" stroke="#7b8894" d="M981.34,-538.98C981.34,-636.15 981.34,-802 981.34,-802 981.34,-802 892.43,-802 892.43,-802"/>
<polygon fill="#7b8894" stroke="#7b8894" points="892.43,-798.5 882.43,-802 892.43,-805.5 892.43,-798.5"/>
</g>
<!-- aws.network.RouteTable.e40039400f9b4cb9a7aceafe468918e5 -->
<g id="node4" class="node">
<title>aws.network.RouteTable.e40039400f9b4cb9a7aceafe468918e5</title>
<image xlink:href="/Users/parchugh/git/terravision/resource_images/aws/network/route-table.png" width="101px" height="101px" preserveAspectRatio="xMinYMin meet" x="1560" y="-1211"/>
<text text-anchor="middle" x="1610.5" y="-1095.8" font-family="Sans-Serif" font-size="14.00" fill="#2d3436">Private 1 Route Tabl</text>
</g>
<!-- aws.network.ElbApplicationLoadBalancer.5ec9fb744b4943579fb007464ec50106 -->
<g id="node5" class="node">
<title>aws.network.ElbApplicationLoadBalancer.5ec9fb744b4943579fb007464ec50106</title>
<image xlink:href="/Users/parchugh/git/terravision/resource_images/aws/network/elb-application-load-balancer.png" width="101px" height="101px" preserveAspectRatio="xMinYMin meet" x="1242.7" y="-980.048"/>
<text text-anchor="middle" x="1293.2" y="-864.85" font-family="Sans-Serif" font-size="14.00" fill="#2d3436">Elb 1 ALB</text>
</g>
<!-- aws.network.ElbApplicationLoadBalancer.5ec9fb744b4943579fb007464ec50106&#45;&gt;aws.compute.Fargate.5f778a1f9204446b88bd940cb1c8eac5 -->
<g id="edge3" class="edge">
<title>aws.network.ElbApplicationLoadBalancer.5ec9fb744b4943579fb007464ec50106&#45;&gt;aws.compute.Fargate.5f778a1f9204446b88bd940cb1c8eac5</title>
<path fill="none" stroke="#7b8894" d="M1242.56,-889C1162.42,-889 1015.34,-889 1015.34,-889 1015.34,-889 1015.34,-548.92 1015.34,-548.92"/>
<polygon fill="#7b8894" stroke="#7b8894" points="1018.84,-548.92 1015.34,-538.92 1011.84,-548.92 1018.84,-548.92"/>
</g>
<!-- aws.network.NATGateway.a9cddd2396d94ad8a53243bf80406a0f -->
<g id="node6" class="node">
<title>aws.network.NATGateway.a9cddd2396d94ad8a53243bf80406a0f</title>
<image xlink:href="/Users/parchugh/git/terravision/resource_images/aws/network/nat-gateway.png" width="101px" height="101px" preserveAspectRatio="xMinYMin meet" x="1017.45" y="-1969.06"/>
<text text-anchor="middle" x="1067.95" y="-1853.86" font-family="Sans-Serif" font-size="14.00" fill="#2d3436">1 NAT Gateway</text>
</g>
<!-- aws.network.InternetGateway.2abee6732c314c7389a5b821a3bdc9ec -->
<g id="node22" class="node">
<title>aws.network.InternetGateway.2abee6732c314c7389a5b821a3bdc9ec</title>
<image xlink:href="/Users/parchugh/git/terravision/resource_images/aws/network/internet-gateway.png" width="101px" height="101px" preserveAspectRatio="xMinYMin meet" x="968.74" y="-1813.4"/>
<text text-anchor="middle" x="1019.24" y="-1698.2" font-family="Sans-Serif" font-size="14.00" fill="#2d3436">Igw Internet Gateway</text>
</g>
<!-- aws.network.NATGateway.a9cddd2396d94ad8a53243bf80406a0f&#45;&gt;aws.network.InternetGateway.2abee6732c314c7389a5b821a3bdc9ec -->
<g id="edge10" class="edge">
<title>aws.network.NATGateway.a9cddd2396d94ad8a53243bf80406a0f&#45;&gt;aws.network.InternetGateway.2abee6732c314c7389a5b821a3bdc9ec</title>
<path fill="none" stroke="#7b8894" d="M1043.6,-1849.83C1043.6,-1849.83 1043.6,-1841.68 1043.6,-1841.68"/>
<polygon fill="#7b8894" stroke="#7b8894" points="1047.1,-1841.68 1043.6,-1831.68 1040.1,-1841.68 1047.1,-1841.68"/>
</g>
<!-- aws.compute.ElasticIP.eeeb71c0cc404c48b8176b89221aca29 -->
<g id="node29" class="node">
<title>aws.compute.ElasticIP.eeeb71c0cc404c48b8176b89221aca29</title>
<image xlink:href="/Users/parchugh/git/terravision/resource_images/aws/compute/ec2-elastic-ip-address.png" width="101px" height="101px" preserveAspectRatio="xMinYMin meet" x="782.625" y="-1953.31"/>
<text text-anchor="middle" x="833.13" y="-1838.11" font-family="Sans-Serif" font-size="14.00" fill="#2d3436">Eip Eip</text>
</g>
<!-- aws.network.NATGateway.a9cddd2396d94ad8a53243bf80406a0f&#45;&gt;aws.compute.ElasticIP.eeeb71c0cc404c48b8176b89221aca29 -->
<g id="edge21" class="edge">
<title>aws.network.NATGateway.a9cddd2396d94ad8a53243bf80406a0f&#45;&gt;aws.compute.ElasticIP.eeeb71c0cc404c48b8176b89221aca29</title>
<path fill="none" stroke="#7b8894" d="M1017.29,-1880C1017.29,-1880 893.7,-1880 893.7,-1880"/>
<polygon fill="#7b8894" stroke="#7b8894" points="893.7,-1876.5 883.7,-1880 893.7,-1883.5 893.7,-1876.5"/>
</g>
<!-- aws.network.RouteTable.614cf42a5b3747ffb751aa1b093935ce -->
<g id="node7" class="node">
<title>aws.network.RouteTable.614cf42a5b3747ffb751aa1b093935ce</title>
<image xlink:href="/Users/parchugh/git/terravision/resource_images/aws/network/route-table.png" width="101px" height="101px" preserveAspectRatio="xMinYMin meet" x="1326" y="-1211"/>
<text text-anchor="middle" x="1376.5" y="-1095.8" font-family="Sans-Serif" font-size="14.00" fill="#2d3436">Public 1 Route Table</text>
</g>
<!-- aws.database.Aurora.41e8a42a82e442d48d6002d1f695a73c -->
<g id="node8" class="node">
<title>aws.database.Aurora.41e8a42a82e442d48d6002d1f695a73c</title>
<image xlink:href="/Users/parchugh/git/terravision/resource_images/aws/database/aurora-instance.png" width="101px" height="101px" preserveAspectRatio="xMinYMin meet" x="184.383" y="-1250.25"/>
<text text-anchor="middle" x="234.88" y="-1135.05" font-family="Sans-Serif" font-size="14.00" fill="#2d3436">2 RDS Aurora</text>
</g>
<!-- aws.network.VPCElasticNetworkInterface.d8dfe14955e94f0ba187f73ee6d47f2d -->
<g id="node9" class="node">
<title>aws.network.VPCElasticNetworkInterface.d8dfe14955e94f0ba187f73ee6d47f2d</title>
<image xlink:href="/Users/parchugh/git/terravision/resource_images/aws/network/vpc-elastic-network-interface.png" width="101px" height="101px" preserveAspectRatio="xMinYMin meet" x="151.809" y="-665.918"/>
<text text-anchor="middle" x="202.31" y="-550.72" font-family="Sans-Serif" font-size="14.00" fill="#2d3436">2 EFS Mount Targe</text>
</g>
<!-- aws.network.VPCElasticNetworkInterface.d8dfe14955e94f0ba187f73ee6d47f2d&#45;&gt;aws.storage.ElasticFileSystemEFS.fd77180a1a184971b3bc1c16b07e5188 -->
<g id="edge22" class="edge">
<title>aws.network.VPCElasticNetworkInterface.d8dfe14955e94f0ba187f73ee6d47f2d&#45;&gt;aws.storage.ElasticFileSystemEFS.fd77180a1a184971b3bc1c16b07e5188</title>
<path fill="none" stroke="#7b8894" d="M252.91,-557C262.46,-557 269.53,-557 269.53,-557 269.53,-557 269.53,-241.31 269.53,-241.31"/>
<polygon fill="#7b8894" stroke="#7b8894" points="273.03,-241.31 269.53,-231.31 266.03,-241.31 273.03,-241.31"/>
</g>
<!-- aws.compute.Fargate.dd2153c166f44583b64c40e51ec6bf5d -->
<g id="node10" class="node">
<title>aws.compute.Fargate.dd2153c166f44583b64c40e51ec6bf5d</title>
<image xlink:href="/Users/parchugh/git/terravision/resource_images/aws/compute/fargate.png" width="101px" height="101px" preserveAspectRatio="xMinYMin meet" x="506.361" y="-1003.22"/>
<text text-anchor="middle" x="556.86" y="-888.02" font-family="Sans-Serif" font-size="14.00" fill="#2d3436">Ecs 2 Fargate</text>
</g>
<!-- aws.compute.Fargate.dd2153c166f44583b64c40e51ec6bf5d&#45;&gt;aws.database.Aurora.41e8a42a82e442d48d6002d1f695a73c -->
<g id="edge4" class="edge">
<title>aws.compute.Fargate.dd2153c166f44583b64c40e51ec6bf5d&#45;&gt;aws.database.Aurora.41e8a42a82e442d48d6002d1f695a73c</title>
<path fill="none" stroke="#7b8894" d="M556.86,-1021.36C556.86,-1081.04 556.86,-1158 556.86,-1158 556.86,-1158 295.55,-1158 295.55,-1158"/>
<polygon fill="#7b8894" stroke="#7b8894" points="295.55,-1154.5 285.55,-1158 295.55,-1161.5 295.55,-1154.5"/>
</g>
<!-- aws.compute.Fargate.dd2153c166f44583b64c40e51ec6bf5d&#45;&gt;aws.network.VPCElasticNetworkInterface.d8dfe14955e94f0ba187f73ee6d47f2d -->
<g id="edge5" class="edge">
<title>aws.compute.Fargate.dd2153c166f44583b64c40e51ec6bf5d&#45;&gt;aws.network.VPCElasticNetworkInterface.d8dfe14955e94f0ba187f73ee6d47f2d</title>
<path fill="none" stroke="#7b8894" d="M506.22,-952C411.85,-952 218.6,-952 218.6,-952 218.6,-952 218.6,-693.94 218.6,-693.94"/>
<polygon fill="#7b8894" stroke="#7b8894" points="222.1,-693.94 218.6,-683.94 215.1,-693.94 222.1,-693.94"/>
</g>
<!-- aws.compute.Fargate.dd2153c166f44583b64c40e51ec6bf5d&#45;&gt;aws.compute.ElasticContainerRegistry.1a1513bee7d54717a608751d0f775f03 -->
<g id="edge23" class="edge">
<title>aws.compute.Fargate.dd2153c166f44583b64c40e51ec6bf5d&#45;&gt;aws.compute.ElasticContainerRegistry.1a1513bee7d54717a608751d0f775f03</title>
<path fill="none" stroke="#7b8894" d="M580.4,-883.99C580.4,-775.81 580.4,-578 580.4,-578 580.4,-578 598.48,-578 598.48,-578"/>
<polygon fill="#7b8894" stroke="#7b8894" points="598.48,-581.5 608.48,-578 598.48,-574.5 598.48,-581.5"/>
</g>
<!-- aws.compute.Fargate.dd2153c166f44583b64c40e51ec6bf5d&#45;&gt;aws.management.SystemsManagerParameterStore.dfac7421880941908d430cdb5be82328 -->
<g id="edge24" class="edge">
<title>aws.compute.Fargate.dd2153c166f44583b64c40e51ec6bf5d&#45;&gt;aws.management.SystemsManagerParameterStore.dfac7421880941908d430cdb5be82328</title>
<path fill="none" stroke="#7b8894" d="M607.63,-895C629.74,-895 650.71,-895 650.71,-895 650.71,-895 650.71,-784.47 650.71,-784.47"/>
<polygon fill="#7b8894" stroke="#7b8894" points="654.21,-784.47 650.71,-774.47 647.21,-784.47 654.21,-784.47"/>
</g>
<!-- aws.compute.Fargate.dd2153c166f44583b64c40e51ec6bf5d&#45;&gt;aws.compute.ElasticContainerService.7e8b0c591405463cb1b75271bf5981b7 -->
<g id="edge25" class="edge">
<title>aws.compute.Fargate.dd2153c166f44583b64c40e51ec6bf5d&#45;&gt;aws.compute.ElasticContainerService.7e8b0c591405463cb1b75271bf5981b7</title>
<path fill="none" stroke="#7b8894" d="M607.61,-907C607.61,-907 770.88,-907 770.88,-907"/>
<polygon fill="#7b8894" stroke="#7b8894" points="770.88,-910.5 780.88,-907 770.88,-903.5 770.88,-910.5"/>
</g>
<!-- aws.network.RouteTable.1d371a88b7654d76858b9ac21db00aa2 -->
<g id="node11" class="node">
<title>aws.network.RouteTable.1d371a88b7654d76858b9ac21db00aa2</title>
<image xlink:href="/Users/parchugh/git/terravision/resource_images/aws/network/route-table.png" width="101px" height="101px" preserveAspectRatio="xMinYMin meet" x="1482" y="-1445"/>
<text text-anchor="middle" x="1532.5" y="-1329.8" font-family="Sans-Serif" font-size="14.00" fill="#2d3436">Private 2 Route Tabl</text>
</g>
<!-- aws.network.ElbApplicationLoadBalancer.69853ce272724263acc3eb6ad10db795 -->
<g id="node12" class="node">
<title>aws.network.ElbApplicationLoadBalancer.69853ce272724263acc3eb6ad10db795</title>
<image xlink:href="/Users/parchugh/git/terravision/resource_images/aws/network/elb-application-load-balancer.png" width="101px" height="101px" preserveAspectRatio="xMinYMin meet" x="661.594" y="-1406.22"/>
<text text-anchor="middle" x="712.09" y="-1291.02" font-family="Sans-Serif" font-size="14.00" fill="#2d3436">Elb 2 ALB</text>
</g>
<!-- aws.network.ElbApplicationLoadBalancer.69853ce272724263acc3eb6ad10db795&#45;&gt;aws.compute.Fargate.dd2153c166f44583b64c40e51ec6bf5d -->
<g id="edge6" class="edge">
<title>aws.network.ElbApplicationLoadBalancer.69853ce272724263acc3eb6ad10db795&#45;&gt;aws.compute.Fargate.dd2153c166f44583b64c40e51ec6bf5d</title>
<path fill="none" stroke="#7b8894" d="M701.21,-1287.22C701.21,-1186.18 701.21,-1009 701.21,-1009 701.21,-1009 617.75,-1009 617.75,-1009"/>
<polygon fill="#7b8894" stroke="#7b8894" points="617.75,-1005.5 607.75,-1009 617.75,-1012.5 617.75,-1005.5"/>
</g>
<!-- aws.network.NATGateway.198d9725c3804059ba459f4bb273479a -->
<g id="node13" class="node">
<title>aws.network.NATGateway.198d9725c3804059ba459f4bb273479a</title>
<image xlink:href="/Users/parchugh/git/terravision/resource_images/aws/network/nat-gateway.png" width="101px" height="101px" preserveAspectRatio="xMinYMin meet" x="780" y="-1762.44"/>
<text text-anchor="middle" x="830.5" y="-1647.24" font-family="Sans-Serif" font-size="14.00" fill="#2d3436">2 NAT Gateway</text>
</g>
<!-- aws.network.NATGateway.198d9725c3804059ba459f4bb273479a&#45;&gt;aws.network.InternetGateway.2abee6732c314c7389a5b821a3bdc9ec -->
<g id="edge11" class="edge">
<title>aws.network.NATGateway.198d9725c3804059ba459f4bb273479a&#45;&gt;aws.network.InternetGateway.2abee6732c314c7389a5b821a3bdc9ec</title>
<path fill="none" stroke="#7b8894" d="M881.08,-1737C881.08,-1737 958.52,-1737 958.52,-1737"/>
<polygon fill="#7b8894" stroke="#7b8894" points="958.52,-1740.5 968.52,-1737 958.52,-1733.5 958.52,-1740.5"/>
</g>
<!-- aws.network.NATGateway.198d9725c3804059ba459f4bb273479a&#45;&gt;aws.compute.ElasticIP.eeeb71c0cc404c48b8176b89221aca29 -->
<g id="edge26" class="edge">
<title>aws.network.NATGateway.198d9725c3804059ba459f4bb273479a&#45;&gt;aws.compute.ElasticIP.eeeb71c0cc404c48b8176b89221aca29</title>
<path fill="none" stroke="#7b8894" d="M831.81,-1780.58C831.81,-1780.58 831.81,-1824.14 831.81,-1824.14"/>
<polygon fill="#7b8894" stroke="#7b8894" points="828.31,-1824.14 831.81,-1834.14 835.31,-1824.14 828.31,-1824.14"/>
</g>
<!-- aws.network.RouteTable.0d6c4157fcd946eba72b1bb2d37b58ed -->
<g id="node14" class="node">
<title>aws.network.RouteTable.0d6c4157fcd946eba72b1bb2d37b58ed</title>
<image xlink:href="/Users/parchugh/git/terravision/resource_images/aws/network/route-table.png" width="101px" height="101px" preserveAspectRatio="xMinYMin meet" x="546" y="-1757"/>
<text text-anchor="middle" x="596.5" y="-1641.8" font-family="Sans-Serif" font-size="14.00" fill="#2d3436">Public 2 Route Table</text>
</g>
<!-- aws.database.Aurora.4cbaca7fbb1e4053b08dd2ff91ea616a -->
<g id="node15" class="node">
<title>aws.database.Aurora.4cbaca7fbb1e4053b08dd2ff91ea616a</title>
<image xlink:href="/Users/parchugh/git/terravision/resource_images/aws/database/aurora-instance.png" width="101px" height="101px" preserveAspectRatio="xMinYMin meet" x="1274.81" y="-445.454"/>
<text text-anchor="middle" x="1325.31" y="-330.25" font-family="Sans-Serif" font-size="14.00" fill="#2d3436">3 RDS Aurora</text>
</g>
<!-- aws.network.VPCElasticNetworkInterface.12ebf11d78f04a37b8080c520f669e58 -->
<g id="node16" class="node">
<title>aws.network.VPCElasticNetworkInterface.12ebf11d78f04a37b8080c520f669e58</title>
<image xlink:href="/Users/parchugh/git/terravision/resource_images/aws/network/vpc-elastic-network-interface.png" width="101px" height="101px" preserveAspectRatio="xMinYMin meet" x="566.913" y="-261.212"/>
<text text-anchor="middle" x="617.41" y="-146.01" font-family="Sans-Serif" font-size="14.00" fill="#2d3436">3 EFS Mount Targe</text>
</g>
<!-- aws.network.VPCElasticNetworkInterface.12ebf11d78f04a37b8080c520f669e58&#45;&gt;aws.storage.ElasticFileSystemEFS.fd77180a1a184971b3bc1c16b07e5188 -->
<g id="edge27" class="edge">
<title>aws.network.VPCElasticNetworkInterface.12ebf11d78f04a37b8080c520f669e58&#45;&gt;aws.storage.ElasticFileSystemEFS.fd77180a1a184971b3bc1c16b07e5188</title>
<path fill="none" stroke="#7b8894" d="M566.74,-186C566.74,-186 364.77,-186 364.77,-186"/>
<polygon fill="#7b8894" stroke="#7b8894" points="364.77,-182.5 354.77,-186 364.77,-189.5 364.77,-182.5"/>
</g>
<!-- aws.compute.Fargate.d787a224b8d94b409759c426866becf3 -->
<g id="node17" class="node">
<title>aws.compute.Fargate.d787a224b8d94b409759c426866becf3</title>
<image xlink:href="/Users/parchugh/git/terravision/resource_images/aws/compute/fargate.png" width="101px" height="101px" preserveAspectRatio="xMinYMin meet" x="868.308" y="-665.748"/>
<text text-anchor="middle" x="918.81" y="-550.55" font-family="Sans-Serif" font-size="14.00" fill="#2d3436">Ecs 3 Fargate</text>
</g>
<!-- aws.compute.Fargate.d787a224b8d94b409759c426866becf3&#45;&gt;aws.database.Aurora.4cbaca7fbb1e4053b08dd2ff91ea616a -->
<g id="edge7" class="edge">
<title>aws.compute.Fargate.d787a224b8d94b409759c426866becf3&#45;&gt;aws.database.Aurora.4cbaca7fbb1e4053b08dd2ff91ea616a</title>
<path fill="none" stroke="#7b8894" d="M969.45,-581C1075.1,-581 1309.26,-581 1309.26,-581 1309.26,-581 1309.26,-473.7 1309.26,-473.7"/>
<polygon fill="#7b8894" stroke="#7b8894" points="1312.76,-473.7 1309.26,-463.7 1305.76,-473.7 1312.76,-473.7"/>
</g>
<!-- aws.compute.Fargate.d787a224b8d94b409759c426866becf3&#45;&gt;aws.network.VPCElasticNetworkInterface.12ebf11d78f04a37b8080c520f669e58 -->
<g id="edge8" class="edge">
<title>aws.compute.Fargate.d787a224b8d94b409759c426866becf3&#45;&gt;aws.network.VPCElasticNetworkInterface.12ebf11d78f04a37b8080c520f669e58</title>
<path fill="none" stroke="#7b8894" d="M896.82,-546.39C896.82,-436.81 896.82,-235 896.82,-235 896.82,-235 678.01,-235 678.01,-235"/>
<polygon fill="#7b8894" stroke="#7b8894" points="678.01,-231.5 668.01,-235 678.01,-238.5 678.01,-231.5"/>
</g>
<!-- aws.compute.Fargate.d787a224b8d94b409759c426866becf3&#45;&gt;aws.compute.ElasticContainerRegistry.1a1513bee7d54717a608751d0f775f03 -->
<g id="edge28" class="edge">
<title>aws.compute.Fargate.d787a224b8d94b409759c426866becf3&#45;&gt;aws.compute.ElasticContainerRegistry.1a1513bee7d54717a608751d0f775f03</title>
<path fill="none" stroke="#7b8894" d="M868.18,-567C868.18,-567 719.91,-567 719.91,-567"/>
<polygon fill="#7b8894" stroke="#7b8894" points="719.92,-563.5 709.91,-567 719.91,-570.5 719.92,-563.5"/>
</g>
<!-- aws.compute.Fargate.d787a224b8d94b409759c426866becf3&#45;&gt;aws.management.SystemsManagerParameterStore.dfac7421880941908d430cdb5be82328 -->
<g id="edge29" class="edge">
<title>aws.compute.Fargate.d787a224b8d94b409759c426866becf3&#45;&gt;aws.management.SystemsManagerParameterStore.dfac7421880941908d430cdb5be82328</title>
<path fill="none" stroke="#7b8894" d="M868.1,-660C868.1,-660 750.89,-660 750.89,-660"/>
<polygon fill="#7b8894" stroke="#7b8894" points="750.89,-656.5 740.89,-660 750.89,-663.5 750.89,-656.5"/>
</g>
<!-- aws.compute.Fargate.d787a224b8d94b409759c426866becf3&#45;&gt;aws.compute.ElasticContainerService.7e8b0c591405463cb1b75271bf5981b7 -->
<g id="edge30" class="edge">
<title>aws.compute.Fargate.d787a224b8d94b409759c426866becf3&#45;&gt;aws.compute.ElasticContainerService.7e8b0c591405463cb1b75271bf5981b7</title>
<path fill="none" stroke="#7b8894" d="M875.3,-683.8C875.3,-683.8 875.3,-771.43 875.3,-771.43"/>
<polygon fill="#7b8894" stroke="#7b8894" points="871.8,-771.43 875.3,-781.43 878.8,-771.43 871.8,-771.43"/>
</g>
<!-- aws.network.RouteTable.79275d108ddc411e9ae6a32dc2692ed8 -->
<g id="node18" class="node">
<title>aws.network.RouteTable.79275d108ddc411e9ae6a32dc2692ed8</title>
<image xlink:href="/Users/parchugh/git/terravision/resource_images/aws/network/route-table.png" width="101px" height="101px" preserveAspectRatio="xMinYMin meet" x="468" y="-1523"/>
<text text-anchor="middle" x="518.5" y="-1407.8" font-family="Sans-Serif" font-size="14.00" fill="#2d3436">Private 3 Route Tabl</text>
</g>
<!-- aws.network.ElbApplicationLoadBalancer.d9e62326021645c286bfbf5a420b5d87 -->
<g id="node19" class="node">
<title>aws.network.ElbApplicationLoadBalancer.d9e62326021645c286bfbf5a420b5d87</title>
<image xlink:href="/Users/parchugh/git/terravision/resource_images/aws/network/elb-application-load-balancer.png" width="101px" height="101px" preserveAspectRatio="xMinYMin meet" x="993.367" y="-1167.69"/>
<text text-anchor="middle" x="1043.87" y="-1052.49" font-family="Sans-Serif" font-size="14.00" fill="#2d3436">Elb 3 ALB</text>
</g>
<!-- aws.network.ElbApplicationLoadBalancer.d9e62326021645c286bfbf5a420b5d87&#45;&gt;aws.compute.Fargate.d787a224b8d94b409759c426866becf3 -->
<g id="edge9" class="edge">
<title>aws.network.ElbApplicationLoadBalancer.d9e62326021645c286bfbf5a420b5d87&#45;&gt;aws.compute.Fargate.d787a224b8d94b409759c426866becf3</title>
<path fill="none" stroke="#7b8894" d="M1004.35,-1048.4C1004.35,-920.96 1004.35,-661 1004.35,-661 1004.35,-661 979.56,-661 979.56,-661"/>
<polygon fill="#7b8894" stroke="#7b8894" points="979.56,-657.5 969.56,-661 979.56,-664.5 979.56,-657.5"/>
</g>
<!-- aws.network.NATGateway.8f62518c8696425b97b5f2b4b74974ab -->
<g id="node20" class="node">
<title>aws.network.NATGateway.8f62518c8696425b97b5f2b4b74974ab</title>
<image xlink:href="/Users/parchugh/git/terravision/resource_images/aws/network/nat-gateway.png" width="101px" height="101px" preserveAspectRatio="xMinYMin meet" x="908.44" y="-2030.46"/>
<text text-anchor="middle" x="958.94" y="-1915.26" font-family="Sans-Serif" font-size="14.00" fill="#2d3436">3 NAT Gateway</text>
</g>
<!-- aws.network.NATGateway.8f62518c8696425b97b5f2b4b74974ab&#45;&gt;aws.network.InternetGateway.2abee6732c314c7389a5b821a3bdc9ec -->
<g id="edge12" class="edge">
<title>aws.network.NATGateway.8f62518c8696425b97b5f2b4b74974ab&#45;&gt;aws.network.InternetGateway.2abee6732c314c7389a5b821a3bdc9ec</title>
<path fill="none" stroke="#7b8894" d="M989.09,-1911.28C989.09,-1911.28 989.09,-1841.5 989.09,-1841.5"/>
<polygon fill="#7b8894" stroke="#7b8894" points="992.59,-1841.5 989.09,-1831.5 985.59,-1841.5 992.59,-1841.5"/>
</g>
<!-- aws.network.NATGateway.8f62518c8696425b97b5f2b4b74974ab&#45;&gt;aws.compute.ElasticIP.eeeb71c0cc404c48b8176b89221aca29 -->
<g id="edge31" class="edge">
<title>aws.network.NATGateway.8f62518c8696425b97b5f2b4b74974ab&#45;&gt;aws.compute.ElasticIP.eeeb71c0cc404c48b8176b89221aca29</title>
<path fill="none" stroke="#7b8894" d="M908.13,-1941C908.13,-1941 893.72,-1941 893.72,-1941"/>
<polygon fill="#7b8894" stroke="#7b8894" points="893.72,-1937.5 883.72,-1941 893.72,-1944.5 893.72,-1937.5"/>
</g>
<!-- aws.network.RouteTable.cb67faa6399a4b6dbe73308dd6539cde -->
<g id="node21" class="node">
<title>aws.network.RouteTable.cb67faa6399a4b6dbe73308dd6539cde</title>
<image xlink:href="/Users/parchugh/git/terravision/resource_images/aws/network/route-table.png" width="101px" height="101px" preserveAspectRatio="xMinYMin meet" x="1482" y="-977"/>
<text text-anchor="middle" x="1532.5" y="-861.8" font-family="Sans-Serif" font-size="14.00" fill="#2d3436">Public 3 Route Table</text>
</g>
<!-- aws.general.InternetAlt1.fd808aee7bdb44ad9fe4974eb5c12cee -->
<g id="node37" class="node">
<title>aws.general.InternetAlt1.fd808aee7bdb44ad9fe4974eb5c12cee</title>
<image xlink:href="/Users/parchugh/git/terravision/resource_images/aws/general/internet-alt1.png" width="101px" height="101px" preserveAspectRatio="xMinYMin meet" x="1105.97" y="-1679"/>
<text text-anchor="middle" x="1156.47" y="-1563.8" font-family="Sans-Serif" font-size="14.00" fill="#2d3436">Internet Tv Internet</text>
</g>
<!-- aws.network.InternetGateway.2abee6732c314c7389a5b821a3bdc9ec&#45;&gt;aws.general.InternetAlt1.fd808aee7bdb44ad9fe4974eb5c12cee -->
<g id="edge43" class="edge">
<title>aws.network.InternetGateway.2abee6732c314c7389a5b821a3bdc9ec&#45;&gt;aws.general.InternetAlt1.fd808aee7bdb44ad9fe4974eb5c12cee</title>
<path fill="none" stroke="#7b8894" d="M1069.81,-1764C1091.61,-1764 1112.21,-1764 1112.21,-1764 1112.21,-1764 1112.21,-1707.04 1112.21,-1707.04"/>
<polygon fill="#7b8894" stroke="#7b8894" points="1115.71,-1707.04 1112.21,-1697.04 1108.71,-1707.04 1115.71,-1707.04"/>
</g>
<!-- aws.network.ElasticLoadBalancing.93b6c9c00c3f4c7f8b13be87eeabe908 -->
<g id="node23" class="node">
<title>aws.network.ElasticLoadBalancing.93b6c9c00c3f4c7f8b13be87eeabe908</title>
<image xlink:href="/Users/parchugh/git/terravision/resource_images/aws/network/elastic-load-balancing.png" width="101px" height="101px" preserveAspectRatio="xMinYMin meet" x="1102.91" y="-1415.96"/>
<text text-anchor="middle" x="1153.41" y="-1300.76" font-family="Sans-Serif" font-size="14.00" fill="#2d3436">Elb LB</text>
</g>
<!-- aws.network.ElasticLoadBalancing.93b6c9c00c3f4c7f8b13be87eeabe908&#45;&gt;aws.network.ElbApplicationLoadBalancer.5ec9fb744b4943579fb007464ec50106 -->
<g id="edge13" class="edge">
<title>aws.network.ElasticLoadBalancing.93b6c9c00c3f4c7f8b13be87eeabe908&#45;&gt;aws.network.ElbApplicationLoadBalancer.5ec9fb744b4943579fb007464ec50106</title>
<path fill="none" stroke="#7b8894" d="M1181.44,-1296.8C1181.44,-1180.68 1181.44,-958 1181.44,-958 1181.44,-958 1232.55,-958 1232.55,-958"/>
<polygon fill="#7b8894" stroke="#7b8894" points="1232.55,-961.5 1242.55,-958 1232.55,-954.5 1232.55,-961.5"/>
</g>
<!-- aws.network.ElasticLoadBalancing.93b6c9c00c3f4c7f8b13be87eeabe908&#45;&gt;aws.network.ElbApplicationLoadBalancer.69853ce272724263acc3eb6ad10db795 -->
<g id="edge14" class="edge">
<title>aws.network.ElasticLoadBalancing.93b6c9c00c3f4c7f8b13be87eeabe908&#45;&gt;aws.network.ElbApplicationLoadBalancer.69853ce272724263acc3eb6ad10db795</title>
<path fill="none" stroke="#7b8894" d="M1102.78,-1360C1102.78,-1360 772.81,-1360 772.81,-1360"/>
<polygon fill="#7b8894" stroke="#7b8894" points="772.81,-1356.5 762.81,-1360 772.81,-1363.5 772.81,-1356.5"/>
</g>
<!-- aws.network.ElasticLoadBalancing.93b6c9c00c3f4c7f8b13be87eeabe908&#45;&gt;aws.network.ElbApplicationLoadBalancer.d9e62326021645c286bfbf5a420b5d87 -->
<g id="edge15" class="edge">
<title>aws.network.ElasticLoadBalancing.93b6c9c00c3f4c7f8b13be87eeabe908&#45;&gt;aws.network.ElbApplicationLoadBalancer.d9e62326021645c286bfbf5a420b5d87</title>
<path fill="none" stroke="#7b8894" d="M1124.69,-1296.91C1124.69,-1223.36 1124.69,-1117 1124.69,-1117 1124.69,-1117 1104.6,-1117 1104.6,-1117"/>
<polygon fill="#7b8894" stroke="#7b8894" points="1104.6,-1113.5 1094.6,-1117 1104.6,-1120.5 1104.6,-1113.5"/>
</g>
<!-- aws.security.CertificateManager.cff270b82eb04f45a5ba6acc66866b36 -->
<g id="node24" class="node">
<title>aws.security.CertificateManager.cff270b82eb04f45a5ba6acc66866b36</title>
<image xlink:href="/Users/parchugh/git/terravision/resource_images/aws/security/certificate-manager.png" width="101px" height="101px" preserveAspectRatio="xMinYMin meet" x="1714.42" y="-1826.47"/>
<text text-anchor="middle" x="1764.92" y="-1711.27" font-family="Sans-Serif" font-size="14.00" fill="#2d3436">Acm ACM Certificate</text>
</g>
<!-- aws.network.CloudFront.f32cbb231f6449e1a5eaeed0cba8dce3 -->
<g id="node31" class="node">
<title>aws.network.CloudFront.f32cbb231f6449e1a5eaeed0cba8dce3</title>
<image xlink:href="/Users/parchugh/git/terravision/resource_images/aws/network/cloudfront.png" width="101px" height="101px" preserveAspectRatio="xMinYMin meet" x="1317.4" y="-1747.87"/>
<text text-anchor="middle" x="1367.9" y="-1632.67" font-family="Sans-Serif" font-size="14.00" fill="#2d3436">Cloudfront Distri</text>
</g>
<!-- aws.network.CloudFront.f32cbb231f6449e1a5eaeed0cba8dce3&#45;&gt;aws.network.ElasticLoadBalancing.93b6c9c00c3f4c7f8b13be87eeabe908 -->
<g id="edge32" class="edge">
<title>aws.network.CloudFront.f32cbb231f6449e1a5eaeed0cba8dce3&#45;&gt;aws.network.ElasticLoadBalancing.93b6c9c00c3f4c7f8b13be87eeabe908</title>
<path fill="none" stroke="#7b8894" d="M1330.55,-1628.51C1330.55,-1531.15 1330.55,-1365 1330.55,-1365 1330.55,-1365 1214.17,-1365 1214.17,-1365"/>
<polygon fill="#7b8894" stroke="#7b8894" points="1214.17,-1361.5 1204.17,-1365 1214.17,-1368.5 1214.17,-1361.5"/>
</g>
<!-- aws.network.CloudFront.f32cbb231f6449e1a5eaeed0cba8dce3&#45;&gt;aws.security.CertificateManager.cff270b82eb04f45a5ba6acc66866b36 -->
<g id="edge33" class="edge">
<title>aws.network.CloudFront.f32cbb231f6449e1a5eaeed0cba8dce3&#45;&gt;aws.security.CertificateManager.cff270b82eb04f45a5ba6acc66866b36</title>
<path fill="none" stroke="#7b8894" d="M1418.58,-1736C1418.58,-1736 1704.22,-1736 1704.22,-1736"/>
<polygon fill="#7b8894" stroke="#7b8894" points="1704.22,-1739.5 1714.22,-1736 1704.22,-1732.5 1704.22,-1739.5"/>
</g>
<!-- aws.network.Route53.c2b4fa4c61dd4aedade797b9fe2ad5cc -->
<g id="node32" class="node">
<title>aws.network.Route53.c2b4fa4c61dd4aedade797b9fe2ad5cc</title>
<image xlink:href="/Users/parchugh/git/terravision/resource_images/aws/network/route-53.png" width="101px" height="101px" preserveAspectRatio="xMinYMin meet" x="1245.1" y="-2135.39"/>
<text text-anchor="middle" x="1295.6" y="-2020.19" font-family="Sans-Serif" font-size="14.00" fill="#2d3436">Route 53 Route53 Rec</text>
</g>
<!-- aws.network.Route53.c2b4fa4c61dd4aedade797b9fe2ad5cc&#45;&gt;aws.network.CloudFront.f32cbb231f6449e1a5eaeed0cba8dce3 -->
<g id="edge34" class="edge">
<title>aws.network.Route53.c2b4fa4c61dd4aedade797b9fe2ad5cc&#45;&gt;aws.network.CloudFront.f32cbb231f6449e1a5eaeed0cba8dce3</title>
<path fill="none" stroke="#7b8894" d="M1331.75,-2016.06C1331.75,-2016.06 1331.75,-1775.89 1331.75,-1775.89"/>
<polygon fill="#7b8894" stroke="#7b8894" points="1335.25,-1775.89 1331.75,-1765.89 1328.25,-1775.89 1335.25,-1775.89"/>
</g>
<!-- aws.security.IdentityAndAccessManagementIamRole.64b17debf79545d3af49279e3c3afb6b -->
<g id="node33" class="node">
<title>aws.security.IdentityAndAccessManagementIamRole.64b17debf79545d3af49279e3c3afb6b</title>
<image xlink:href="/Users/parchugh/git/terravision/resource_images/aws/security/identity-and-access-management-iam-role.png" width="101px" height="101px" preserveAspectRatio="xMinYMin meet" x="1045.48" y="-804.804"/>
<text text-anchor="middle" x="1095.98" y="-689.6" font-family="Sans-Serif" font-size="14.00" fill="#2d3436">Task Execution Role </text>
</g>
<!-- aws.security.IdentityAndAccessManagementIamRole.64b17debf79545d3af49279e3c3afb6b&#45;&gt;aws.compute.Fargate.5f778a1f9204446b88bd940cb1c8eac5 -->
<g id="edge35" class="edge">
<title>aws.security.IdentityAndAccessManagementIamRole.64b17debf79545d3af49279e3c3afb6b&#45;&gt;aws.compute.Fargate.5f778a1f9204446b88bd940cb1c8eac5</title>
<path fill="none" stroke="#7b8894" d="M1053.8,-685.76C1053.8,-610.74 1053.8,-501 1053.8,-501 1053.8,-501 1036.53,-501 1036.53,-501"/>
<polygon fill="#7b8894" stroke="#7b8894" points="1036.53,-497.5 1026.53,-501 1036.53,-504.5 1036.53,-497.5"/>
</g>
<!-- aws.security.IdentityAndAccessManagementIamRole.64b17debf79545d3af49279e3c3afb6b&#45;&gt;aws.compute.Fargate.dd2153c166f44583b64c40e51ec6bf5d -->
<g id="edge36" class="edge">
<title>aws.security.IdentityAndAccessManagementIamRole.64b17debf79545d3af49279e3c3afb6b&#45;&gt;aws.compute.Fargate.dd2153c166f44583b64c40e51ec6bf5d</title>
<path fill="none" stroke="#7b8894" d="M1045.07,-778C917.42,-778 593.88,-778 593.88,-778 593.88,-778 593.88,-874.17 593.88,-874.17"/>
<polygon fill="#7b8894" stroke="#7b8894" points="590.38,-874.17 593.88,-884.17 597.38,-874.17 590.38,-874.17"/>
</g>
<!-- aws.security.IdentityAndAccessManagementIamRole.64b17debf79545d3af49279e3c3afb6b&#45;&gt;aws.compute.Fargate.d787a224b8d94b409759c426866becf3 -->
<g id="edge37" class="edge">
<title>aws.security.IdentityAndAccessManagementIamRole.64b17debf79545d3af49279e3c3afb6b&#45;&gt;aws.compute.Fargate.d787a224b8d94b409759c426866becf3</title>
<path fill="none" stroke="#7b8894" d="M1049.64,-685.64C1049.64,-660.46 1049.64,-638 1049.64,-638 1049.64,-638 979.39,-638 979.39,-638"/>
<polygon fill="#7b8894" stroke="#7b8894" points="979.39,-634.5 969.39,-638 979.39,-641.5 979.39,-634.5"/>
</g>
<!-- aws.security.IdentityAndAccessManagementIamPermissions.4296e42023b347389f8aa19f63d560c3 -->
<g id="node34" class="node">
<title>aws.security.IdentityAndAccessManagementIamPermissions.4296e42023b347389f8aa19f63d560c3</title>
<image xlink:href="/Users/parchugh/git/terravision/resource_images/aws/security/identity-and-access-management-iam-permissions.png" width="101px" height="101px" preserveAspectRatio="xMinYMin meet" x="1516.34" y="-734.555"/>
<text text-anchor="middle" x="1566.84" y="-619.36" font-family="Sans-Serif" font-size="14.00" fill="#2d3436">Task Execution Polic</text>
</g>
<!-- aws.security.IdentityAndAccessManagementIamRole.64b17debf79545d3af49279e3c3afb6b&#45;&gt;aws.security.IdentityAndAccessManagementIamPermissions.4296e42023b347389f8aa19f63d560c3 -->
<g id="edge38" class="edge">
<title>aws.security.IdentityAndAccessManagementIamRole.64b17debf79545d3af49279e3c3afb6b&#45;&gt;aws.security.IdentityAndAccessManagementIamPermissions.4296e42023b347389f8aa19f63d560c3</title>
<path fill="none" stroke="#7b8894" d="M1146.82,-719C1146.82,-719 1506.21,-719 1506.21,-719"/>
<polygon fill="#7b8894" stroke="#7b8894" points="1506.21,-722.5 1516.21,-719 1506.21,-715.5 1506.21,-722.5"/>
</g>
<!-- aws.security.IdentityAndAccessManagementIamRole.20b6c525828f4b70a1ba1e8a8a140488 -->
<g id="node35" class="node">
<title>aws.security.IdentityAndAccessManagementIamRole.20b6c525828f4b70a1ba1e8a8a140488</title>
<image xlink:href="/Users/parchugh/git/terravision/resource_images/aws/security/identity-and-access-management-iam-role.png" width="101px" height="101px" preserveAspectRatio="xMinYMin meet" x="463.569" y="-687.785"/>
<text text-anchor="middle" x="514.07" y="-572.58" font-family="Sans-Serif" font-size="14.00" fill="#2d3436">Task Role Role</text>
</g>
<!-- aws.security.IdentityAndAccessManagementIamRole.20b6c525828f4b70a1ba1e8a8a140488&#45;&gt;aws.compute.Fargate.5f778a1f9204446b88bd940cb1c8eac5 -->
<g id="edge39" class="edge">
<title>aws.security.IdentityAndAccessManagementIamRole.20b6c525828f4b70a1ba1e8a8a140488&#45;&gt;aws.compute.Fargate.5f778a1f9204446b88bd940cb1c8eac5</title>
<path fill="none" stroke="#7b8894" d="M514.07,-568.75C514.07,-509.73 514.07,-434 514.07,-434 514.07,-434 915.09,-434 915.09,-434"/>
<polygon fill="#7b8894" stroke="#7b8894" points="915.09,-437.5 925.09,-434 915.09,-430.5 915.09,-437.5"/>
</g>
<!-- aws.security.IdentityAndAccessManagementIamRole.20b6c525828f4b70a1ba1e8a8a140488&#45;&gt;aws.compute.Fargate.dd2153c166f44583b64c40e51ec6bf5d -->
<g id="edge40" class="edge">
<title>aws.security.IdentityAndAccessManagementIamRole.20b6c525828f4b70a1ba1e8a8a140488&#45;&gt;aws.compute.Fargate.dd2153c166f44583b64c40e51ec6bf5d</title>
<path fill="none" stroke="#7b8894" d="M535.47,-706.12C535.47,-706.12 535.47,-874.03 535.47,-874.03"/>
<polygon fill="#7b8894" stroke="#7b8894" points="531.97,-874.03 535.47,-884.03 538.97,-874.03 531.97,-874.03"/>
</g>
<!-- aws.security.IdentityAndAccessManagementIamRole.20b6c525828f4b70a1ba1e8a8a140488&#45;&gt;aws.compute.Fargate.d787a224b8d94b409759c426866becf3 -->
<g id="edge41" class="edge">
<title>aws.security.IdentityAndAccessManagementIamRole.20b6c525828f4b70a1ba1e8a8a140488&#45;&gt;aws.compute.Fargate.d787a224b8d94b409759c426866becf3</title>
<path fill="none" stroke="#7b8894" d="M564.92,-612C564.92,-612 858.17,-612 858.17,-612"/>
<polygon fill="#7b8894" stroke="#7b8894" points="858.17,-615.5 868.17,-612 858.17,-608.5 858.17,-615.5"/>
</g>
<!-- aws.security.IdentityAndAccessManagementIamPermissions.e25773770465491daa015b9615608847 -->
<g id="node36" class="node">
<title>aws.security.IdentityAndAccessManagementIamPermissions.e25773770465491daa015b9615608847</title>
<image xlink:href="/Users/parchugh/git/terravision/resource_images/aws/security/identity-and-access-management-iam-permissions.png" width="101px" height="101px" preserveAspectRatio="xMinYMin meet" x="0" y="-721.313"/>
<text text-anchor="middle" x="50.5" y="-606.11" font-family="Sans-Serif" font-size="14.00" fill="#2d3436">Task Policy Attach I</text>
</g>
<!-- aws.security.IdentityAndAccessManagementIamRole.20b6c525828f4b70a1ba1e8a8a140488&#45;&gt;aws.security.IdentityAndAccessManagementIamPermissions.e25773770465491daa015b9615608847 -->
<g id="edge42" class="edge">
<title>aws.security.IdentityAndAccessManagementIamRole.20b6c525828f4b70a1ba1e8a8a140488&#45;&gt;aws.security.IdentityAndAccessManagementIamPermissions.e25773770465491daa015b9615608847</title>
<path fill="none" stroke="#7b8894" d="M463.13,-694C463.13,-694 111.17,-694 111.17,-694"/>
<polygon fill="#7b8894" stroke="#7b8894" points="111.17,-690.5 101.17,-694 111.17,-697.5 111.17,-690.5"/>
</g>
<!-- None.None.Node.90531d1febfc41169eca5e1cd0d8684d -->
<g id="node38" class="node">
<title>None.None.Node.90531d1febfc41169eca5e1cd0d8684d</title>
<path fill="none" stroke="black" d="M858.67,-1249C858.67,-1249 858.33,-1249 858.33,-1249 858.17,-1249 858,-1248.83 858,-1248.67 858,-1248.67 858,-1248.33 858,-1248.33 858,-1248.17 858.17,-1248 858.33,-1248 858.33,-1248 858.67,-1248 858.67,-1248 858.83,-1248 859,-1248.17 859,-1248.33 859,-1248.33 859,-1248.67 859,-1248.67 859,-1248.83 858.83,-1249 858.67,-1249"/>
<text text-anchor="middle" x="858.5" y="-1254" font-family="Sans-Serif" font-size="20.00" fill="#2d3436">Machine generated at 2023&#45;03&#45;07 18:54:38.186549 using Terravision (https://terra&#45;vision.net)	Source: (&#39;https://github.com/futurice/terraform&#45;examples//aws/wordpress_fargate&#39;,)</text>
</g>
<!-- aws.general.Users.c0def54d4b574656bd56ed44b629ab92 -->
<g id="node39" class="node">
<title>aws.general.Users.c0def54d4b574656bd56ed44b629ab92</title>
<image xlink:href="/Users/parchugh/git/terravision/resource_images/aws/general/users.png" width="101px" height="101px" preserveAspectRatio="xMinYMin meet" x="1262.73" y="-2501.55"/>
<text text-anchor="middle" x="1313.23" y="-2386.35" font-family="Sans-Serif" font-size="14.00" fill="#2d3436">Users Tv Users</text>
</g>
<!-- aws.general.Users.c0def54d4b574656bd56ed44b629ab92&#45;&gt;aws.network.Route53.c2b4fa4c61dd4aedade797b9fe2ad5cc -->
<g id="edge44" class="edge">
<title>aws.general.Users.c0def54d4b574656bd56ed44b629ab92&#45;&gt;aws.network.Route53.c2b4fa4c61dd4aedade797b9fe2ad5cc</title>
<path fill="none" stroke="#7b8894" d="M1304.42,-2382.18C1304.42,-2382.18 1304.42,-2163.45 1304.42,-2163.45"/>
<polygon fill="#7b8894" stroke="#7b8894" points="1307.92,-2163.45 1304.42,-2153.45 1300.92,-2163.45 1307.92,-2163.45"/>
</g>
</g>
</svg>
