<?xml version="1.0" encoding="UTF-8"?>
<svg id="standard_product_icon" xmlns="http://www.w3.org/2000/svg" version="1.1" viewBox="0 0 512 512">
  <!-- Generator: Adobe Illustrator 29.1.0, SVG Export Plug-In . SVG Version: 2.1.0 Build 142)  -->
  <g id="bounding_box">
    <rect width="512" height="512" fill="none"/>
  </g>
  <g id="art">
    <path d="M408.17,378.96c-3.18,0-6.4-.95-9.2-2.92-7.22-5.09-8.96-15.07-3.87-22.29,20.21-28.7,30.9-62.51,30.9-97.75,0-42.86-16-83.79-45.04-115.27-28.88-31.3-68.06-50.51-110.31-54.11-8.8-.75-15.33-8.5-14.58-17.3.75-8.8,8.5-15.33,17.3-14.58,50.23,4.28,96.8,27.11,131.11,64.29,34.52,37.4,53.53,86.04,53.53,136.97,0,41.88-12.7,82.05-36.73,116.17-3.12,4.42-8.07,6.79-13.1,6.79h0Z" fill="#fbbc04"/>
    <path d="M256,458c-111.38,0-202-90.62-202-202,0-54.09,21.1-104.91,59.42-143.09,6.26-6.24,28.85,16.43,22.59,22.67-32.25,32.13-50.01,74.9-50.01,120.42,0,93.74,76.26,170,170,170,35.27,0,69.09-10.7,97.81-30.94,7.22-5.09,17.2-3.36,22.29,3.86,5.09,7.22,3.36,17.2-3.86,22.29-34.14,24.06-74.34,36.78-116.25,36.78h0Z" fill="#4285f4"/>
    <path d="M362.65,333.3c-2.71,0-5.45-.69-7.97-2.14-7.66-4.41-10.29-14.19-5.88-21.85,9.29-16.13,14.21-34.57,14.21-53.32,0-53.6-40.01-99.21-93.06-106.1-8.76-1.14-14.94-9.17-13.81-17.93,1.14-8.76,9.17-14.95,17.93-13.81,68.95,8.96,120.94,68.21,120.94,137.84,0,24.34-6.39,48.3-18.47,69.29-2.96,5.14-8.34,8.02-13.88,8.02h0Z" fill="#fbbc04"/>
    <path d="M256,395c-76.64,0-139-62.36-139-139,0-37.27,14.55-72.27,40.98-98.55,6.26-6.23,28.83,16.46,22.57,22.69-20.34,20.23-31.54,47.17-31.54,75.86,0,59,48,107,107,107,18.79,0,37.27-4.94,53.43-14.27,7.65-4.42,17.44-1.8,21.86,5.85s1.8,17.44-5.85,21.86c-21.02,12.14-45.04,18.56-69.44,18.56h0Z" fill="#34a853"/>
    <path d="M256,332c-41.91,0-76-34.09-76-76,0-20.46,8.01-39.65,22.56-54.04,6.28-6.21,28.79,16.54,22.5,22.75-8.42,8.33-13.06,19.44-13.06,31.28,0,24.26,19.74,44,44,44s44-19.74,44-44c0-19.73-13.26-37.18-32.26-42.42-8.52-2.35-13.52-11.16-11.17-19.68,2.35-8.52,11.16-13.52,19.68-11.17,32.82,9.06,55.74,39.19,55.74,73.27,0,41.91-34.09,76-76,76h.01Z" fill="#fbbc04"/>
    <path d="M300,256h0c0,24.26-19.74,44-44,44s-44-19.74-44-44c0-8.84-7.16-16-16-16s-16,7.16-16,16c0,41.91,34.09,76,76,76s76-34.09,76-76h-32Z" fill="#34a853"/>
    <path d="M363,256h0c0,18.75-4.91,37.18-14.21,53.32-4.41,7.66-1.78,17.44,5.88,21.85,2.52,1.45,5.26,2.14,7.97,2.14,5.54,0,10.92-2.88,13.88-8.02,12.09-20.99,18.47-44.94,18.47-69.29h-32,0Z" fill="#34a853"/>
    <path d="M426,256h0c0,35.25-10.68,69.05-30.9,97.75-5.09,7.23-3.35,17.21,3.87,22.29,2.8,1.97,6.01,2.92,9.2,2.92,5.03,0,9.98-2.37,13.1-6.79,24.03-34.13,36.73-74.3,36.73-116.17h-32Z" fill="#4285f4"/>
    <path d="M267.37,244.63L85.44,62.71c-6.25-6.25-16.38-6.25-22.63,0s-6.25,16.38,0,22.63l39.53,39.53c-31.28,36.53-48.35,82.51-48.35,131.13h32c0-40.07,13.77-78,39.05-108.42l22.04,22.04c-19.5,24.48-30.09,54.61-30.09,86.39h32c0-23.21,7.34-45.28,20.91-63.57l22.28,22.28c-7.92,12.19-12.19,26.4-12.19,41.29h32c0-6.22,1.29-12.23,3.73-17.75l29.01,29.01c3.12,3.12,7.22,4.69,11.31,4.69s8.19-1.56,11.31-4.69c6.25-6.25,6.25-16.38,0-22.63h.02Z" fill="#ea4335"/>
  </g>
</svg>