<?xml version="1.0" encoding="UTF-8"?>
<svg id="standard_product_icon" xmlns="http://www.w3.org/2000/svg" version="1.1" viewBox="0 0 512 512">
  <!-- Generator: Adobe Illustrator 29.1.0, SVG Export Plug-In . SVG Version: 2.1.0 Build 142)  -->
  <g id="bounding_box">
    <rect width="512" height="512" fill="none"/>
  </g>
  <g id="art">
    <path d="M346.683,112.611l-.039-75.171c-.005-8.834-7.167-15.992-16-15.992h-.008c-8.837.004-15.997,7.172-15.992,16.008l.039,75.155H118c-17.673,0-32,14.327-32,32v111.865c0,89.085,76.262,161.562,170,161.562s170-72.477,170-161.562v-111.865c0-17.673-14.327-32-32-32h-47.317ZM394,256.477c0,71.44-61.906,129.562-138,129.562s-138-58.121-138-129.562v-111.865h276v111.865Z" fill="#4285f4"/>
    <path d="M314.644,144.611v-32h-117.294l-.039-75.171c-.005-8.834-7.167-15.992-16-15.992h-.008c-8.837.004-15.997,7.172-15.992,16.008l.039,75.155h-47.35c-17.673,0-32,14.327-32,32v111.865c0,83.959,67.741,153.155,154.007,160.841v56.679c0,8.616,6.621,16.029,15.228,16.433,9.188.432,16.772-6.889,16.772-15.982v-89.277c-6.594.627-8.014.652-16,.867h-.007c-76.094,0-138-58.121-138-129.562v-111.865h196.644,0Z" fill="#9aa0a6"/>
  </g>
</svg>