<?xml version="1.0" encoding="UTF-8"?>
<svg id="standard_product_icon" xmlns="http://www.w3.org/2000/svg" version="1.1" viewBox="0 0 512 512">
  <!-- Generator: Adobe Illustrator 29.1.0, SVG Export Plug-In . SVG Version: 2.1.0 Build 142)  -->
  <g id="bounding_box">
    <rect width="512" height="512" fill="none"/>
  </g>
  <g id="art">
    <path d="M180.63,347.41c-4.09,0-8.19-1.56-11.31-4.68-6.25-6.25-6.25-16.38,0-22.63l138.65-138.68c6.25-6.25,16.38-6.25,22.63,0s6.25,16.38,0,22.63l-138.65,138.68c-3.12,3.12-7.22,4.69-11.32,4.69v-.01Z" fill="#9aa0a6"/>
    <path d="M134.65,458.35c-44.66,0-81-36.34-81-81s36.34-81,81-81,81,36.34,81,81-36.34,81-81,81ZM134.65,328.35c-27.02,0-49,21.98-49,49s21.98,49,49,49,49-21.98,49-49-21.98-49-49-49Z" fill="#4285f4"/>
    <path d="M380.81,234.22c-27.52,0-53.39-10.72-72.85-30.18s-30.18-45.33-30.18-72.85,10.72-53.39,30.18-72.85c6.25-6.25,16.38-6.25,22.63,0s6.25,16.38,0,22.63c-27.69,27.7-27.69,72.76,0,100.45,27.7,27.7,72.76,27.69,100.45,0,6.25-6.25,16.38-6.25,22.63,0s6.25,16.38,0,22.63c-19.46,19.46-45.33,30.18-72.85,30.18l-.01-.01Z" fill="#4285f4"/>
    <path d="M106.92,234.73c-4.1,0-8.19-1.56-11.31-4.69-6.25-6.25-6.25-16.38,0-22.63l63.23-63.23-63.23-63.23c-6.25-6.25-6.25-16.38,0-22.63s16.38-6.25,22.63,0l74.54,74.54c3,3,4.69,7.07,4.69,11.31s-1.69,8.31-4.69,11.31l-74.54,74.54c-3.12,3.12-7.22,4.69-11.31,4.69l-.01.02Z" fill="#9aa0a6"/>
    <path d="M405.08,458.35c-4.1,0-8.19-1.56-11.31-4.69l-74.54-74.54c-3-3-4.69-7.07-4.69-11.31s1.69-8.31,4.69-11.31l74.54-74.54c6.25-6.25,16.38-6.25,22.63,0s6.25,16.38,0,22.63l-63.23,63.23,63.23,63.23c6.25,6.25,6.25,16.38,0,22.63-3.12,3.12-7.22,4.69-11.31,4.69l-.01-.02Z" fill="#9aa0a6"/>
    <path d="M192.77,132.88l-11.31-11.31-85.85,85.85c-6.25,6.25-6.25,16.38,0,22.63,3.12,3.12,7.22,4.69,11.31,4.69s8.19-1.56,11.31-4.69l74.54-74.54c6.25-6.25,6.25-16.38,0-22.63Z" fill="#4285f4"/>
    <path d="M319.23,379.12l11.31,11.31,85.85-85.85c6.25-6.25,6.25-16.38,0-22.63-3.12-3.12-7.22-4.69-11.31-4.69s-8.19,1.56-11.31,4.69l-74.54,74.54c-6.25,6.25-6.25,16.38,0,22.63Z" fill="#4285f4"/>
  </g>
</svg>