<?xml version="1.0" encoding="UTF-8"?>
<svg id="standard_product_icon" xmlns="http://www.w3.org/2000/svg" version="1.1" viewBox="0 0 512 512">
  <!-- Generator: Adobe Illustrator 29.1.0, SVG Export Plug-In . SVG Version: 2.1.0 Build 142)  -->
  <g id="bounding_box">
    <rect width="512" height="512" fill="none"/>
  </g>
  <g id="art">
    <path d="M293.082,365.035c-8.837,0-16-7.163-16-16v-69.75c0-8.837,7.163-16,16-16s16,7.163,16,16v69.75c0,8.837-7.163,16-16,16Z" fill="#9aa0a6"/>
    <path d="M426.882,288h-184.064c-8.837,0-16-7.163-16-16s7.163-16,16-16h183.064V86H160.282v95.6c0,8.837-7.163,16-16,16s-16-7.163-16-16v-96.6c0-17.094,13.906-31,31-31h267.6c17.094,0,31,13.906,31,31v172c0,17.094-13.906,31-31,31h0Z" fill="#9aa0a6"/>
    <path d="M426.882,288h-184.064v-32h215.064v1c0,17.121-13.879,31-31,31Z" fill="#2b80f8"/>
    <path d="M160.282,181.6h-32v-96.6c0-17.121,13.879-31,31-31h1v127.6Z" fill="#2b80f8"/>
    <path d="M367.482,383.6h-127.108c-8.837,0-16-7.163-16-16s7.163-16,16-16h127.108c8.837,0,16,7.163,16,16s-7.163,16-16,16Z" fill="#2b80f8"/>
    <path d="M225.374,458H84.882c-17.094,0-31-13.906-31-31v-230.4c0-17.094,13.906-31,31-31h140.492c17.094,0,31,13.906,31,31v230.4c0,17.094-13.906,31-31,31h0ZM85.882,426h138.492v-228.4H85.882v228.4Z" fill="#9aa0a6"/>
    <path d="M224.514,458H84.882c-17.094,0-31-13.906-31-31v-229.45h32v228.45h138.632v32Z" fill="#2b80f8"/>
  </g>
</svg>