<?xml version="1.0" encoding="UTF-8"?>
<svg id="standard_product_icon" xmlns="http://www.w3.org/2000/svg" version="1.1" viewBox="0 0 512 512">
  <!-- Generator: Adobe Illustrator 29.1.0, SVG Export Plug-In . SVG Version: 2.1.0 Build 142)  -->
  <g id="bounding_box">
    <rect width="512" height="512" fill="none"/>
  </g>
  <g id="art">
    <path d="M410.236,224.004l16,9.079,15.981-9.079.019-137.996c.001-8.549-3.327-16.586-9.371-22.631-5.383-5.385-12.348-8.607-19.846-9.249h-2.783l-8.308,15.927,8.308,15.947v138.002Z" fill="#4285f4"/>
    <path d="M299.126,224.004c1.856,4.986,2.875,10.376,2.875,16s-1.019,11.014-2.875,16c-4.658,12.513-14.612,22.467-27.125,27.125l-11.65,15.957,11.65,17.269c30.237-6.305,54.046-30.113,60.351-60.351h77.804c-2.097,85.387-95.013,140.428-138.155,161.416l-16,19.613c18.351,1.964,26.131,2.31,40.845,3.749,16.822-8.754,37.762-21.045,58.291-36.803,25.06-19.237,45.065-40.153,59.46-62.167,18.324-28.021,27.615-57.879,27.615-88.74l.004-29.067h-109.865l-17.548-9.402-15.678,9.402h.001Z" fill="#34a853"/>
    <path d="M272.001,163.653c30.237,6.305,54.046,30.113,60.351,60.351h77.865l.019-138.002h-138.235v77.651h0Z" fill="none"/>
    <path d="M240.001,163.653v-77.651H101.789l-.02,138.002h77.882c6.305-30.237,30.113-54.046,60.351-60.351h0Z" fill="none"/>
    <path d="M410.236,54.128h2.783c-.921-.079-1.848-.126-2.783-.126v.126Z" fill="none"/>
    <path d="M272.001,283.129c-4.986,1.856-10.376,2.875-16,2.875-19.74,0-36.612-12.501-43.125-30l-17.538-10.381-15.688,10.381c6.305,30.237,30.113,54.046,60.351,60.351v101.043c2.475,2.78,7.315,8.909,10.12,13.589h21.88v-147.858Z" fill="#4285f4"/>
    <path d="M410.236,54.002H101.789c-.926,0-1.841.048-2.747.126h311.194v-.126Z" fill="#ea4335"/>
    <polygon points="410.236 224.004 410.236 86.002 410.217 224.004 410.236 224.004" fill="#ea4335"/>
    <path d="M272.001,430.987c-14.771-5.881-26.887-10.879-32-13.589-43.185-21.008-136.084-76.047-138.18-161.394l-16.049-12.031-15.98,12.031c.589,30.784,10.447,60.509,29.324,88.402,15.137,22.364,36.079,43.546,62.246,62.956,41.62,30.873,82.778,47.216,88.456,49.396,1.687.724,3.703,1.239,6.024,1.239,1.959,0,4.137-.367,6.516-1.287,1.173-.454,4.572-1.795,9.642-4.012,6.147-2.688,14.756-6.667,24.845-11.918-8.598-3.374-17.087-6.706-24.845-9.795v.002Z" fill="#fbbc04"/>
    <path d="M212.876,256.004c-1.856-4.986-2.875-10.376-2.875-16,0-25.365,20.635-46,46-46,19.74,0,36.612,12.501,43.125,30h33.225c-6.305-30.237-30.113-54.046-60.351-60.351v-77.651h138.235v-31.874H99.042c-16.361,1.399-29.251,15.154-29.253,31.87l-.024,167.071c0,.979.01,1.957.029,2.935h143.083,0ZM101.789,86.002h138.212v77.651c-30.237,6.305-54.046,30.113-60.351,60.351h-77.882l.02-138.002h0Z" fill="#ea4335"/>
  </g>
</svg>