<?xml version="1.0" encoding="UTF-8"?>
<svg id="standard_product_icon" xmlns="http://www.w3.org/2000/svg" version="1.1" viewBox="0 0 512 512">
  <!-- Generator: Adobe Illustrator 29.1.0, SVG Export Plug-In . SVG Version: 2.1.0 Build 142)  -->
  <g id="bounding_box">
    <rect width="512" height="512" fill="none"/>
  </g>
  <g id="art">
    <path d="M155.24,255.523c-11.135,0-21.995,1.79-32.254,5.226l-38.85-74.169c-4.096-7.817-13.754-10.834-21.568-6.741-7.817,4.095-10.835,13.752-6.741,21.568l38.865,74.199c-3.868,2.899-7.558,6.09-11.037,9.569-19.122,19.12-29.652,44.544-29.652,71.585s10.531,52.464,29.652,71.585c19.12,19.121,44.543,29.652,71.585,29.652s52.465-10.531,71.585-29.652c39.466-39.473,39.469-103.7,0-143.17-19.12-19.121-44.544-29.652-71.585-29.652h0ZM204.229,405.749c-13.086,13.086-30.484,20.292-48.989,20.292s-35.903-7.206-48.989-20.292-20.292-30.484-20.292-48.989,7.206-35.903,20.292-48.989c5-5,10.633-9.133,16.713-12.342.039-.02.079-.037.119-.058.009-.005.016-.01.025-.015,9.796-5.141,20.752-7.877,32.132-7.877,18.506,0,35.903,7.207,48.989,20.292,13.085,13.086,20.292,30.483,20.292,48.989s-7.207,35.903-20.292,48.989h0Z" fill="#9aa0a6"/>
    <path d="M456.172,310.593l-38.865-74.198c3.868-2.899,7.559-6.09,11.038-9.57,19.122-19.12,29.652-44.544,29.652-71.585s-10.53-52.464-29.652-71.585c-19.12-19.12-44.545-29.652-71.585-29.652s-52.464,10.531-71.585,29.652c-39.472,39.472-39.472,103.698,0,143.17,19.12,19.121,44.544,29.652,71.585,29.652,11.136,0,21.995-1.79,32.255-5.226l38.85,74.169c2.854,5.45,8.413,8.567,14.167,8.567,2.499,0,5.034-.587,7.4-1.828,7.818-4.094,10.835-13.751,6.74-21.567h0ZM307.771,204.229c-13.084-13.086-20.292-30.483-20.292-48.989s7.207-35.903,20.292-48.989c13.086-13.086,30.484-20.292,48.989-20.292s35.903,7.206,48.989,20.292,20.292,30.484,20.292,48.989-7.206,35.903-20.292,48.989c-5.031,5.03-10.702,9.182-16.825,12.399-.002,0-.004.002-.006.003-.001,0-.002.001-.003.002-9.802,5.149-20.766,7.888-32.154,7.888-18.506,0-35.903-7.207-48.989-20.292h-.001Z" fill="#9aa0a6"/>
    <path d="M356.76,54.003c-27.041,0-52.465,10.531-71.585,29.652-19.121,19.12-29.652,44.544-29.652,71.585,0,21.638,6.749,42.235,19.24,59.401l-83.135,83.135c5.337,3.522,6.499,4.277,12.601,9.995,27.879,26.118,27.012,70.965,0,97.978-13.086,13.086-30.484,20.292-48.989,20.292s-35.903-7.206-48.989-20.292l-22.596,22.596c19.12,19.121,44.544,29.652,71.585,29.652s52.465-10.531,71.585-29.652c19.121-19.12,29.652-44.544,29.652-71.585,0-21.638-6.749-42.235-19.24-59.401l83.134-83.134c-3.873-2.619-6.619-4.107-12.6-9.996-27.222-26.801-27.012-70.965,0-97.978,13.086-13.086,30.484-20.292,48.989-20.292s35.903,7.206,48.989,20.292l22.596-22.596c-19.12-19.121-44.544-29.652-71.585-29.652h0Z" fill="#4285f4"/>
  </g>
</svg>