<?xml version="1.0" encoding="UTF-8"?>
<svg id="standard_product_icon" xmlns="http://www.w3.org/2000/svg" version="1.1" viewBox="0 0 512 512">
  <!-- Generator: Adobe Illustrator 29.2.1, SVG Export Plug-In . SVG Version: 2.1.0 Build 116)  -->
  <g id="bounding_box">
    <rect width="512" height="512" fill="none"/>
  </g>
  <g id="art">
    <path d="M331.66,331.66l-22.627-22.627c29.242-29.243,29.242-76.823,0-106.066l22.627-22.627c41.72,41.719,41.72,109.602,0,151.32h0Z" fill="#9aa0a6"/>
    <path d="M180.34,331.66c-41.72-41.719-41.72-109.602,0-151.32l22.627,22.627c-29.242,29.243-29.242,76.823,0,106.066l-22.627,22.627Z" fill="#9aa0a6"/>
    <path d="M309.033,202.967c-29.242-29.242-76.824-29.242-106.066,0l-22.627-22.627c20.21-20.21,47.08-31.34,75.66-31.34s55.45,11.13,75.66,31.34l-22.627,22.627h0Z" fill="#4285f4"/>
    <path d="M256,363c-28.58,0-55.45-11.13-75.66-31.34l22.627-22.627c29.242,29.242,76.824,29.242,106.066,0l22.627,22.627c-20.21,20.21-47.08,31.34-75.66,31.34Z" fill="#4285f4"/>
    <path d="M170.229,147.603c5.406-9.256,8.521-20.007,8.521-31.478,0-34.531-28.094-62.625-62.625-62.625s-62.625,28.094-62.625,62.625,28.094,62.625,62.625,62.625c11.471,0,22.222-3.114,31.478-8.52l45.281,45.281c5.831-9.07,13.557-16.796,22.627-22.627l-45.281-45.281h-.001ZM116.125,146.75c-16.887,0-30.625-13.738-30.625-30.625s13.738-30.625,30.625-30.625,30.625,13.738,30.625,30.625-13.738,30.625-30.625,30.625Z" fill="#4285f4"/>
    <path d="M215.51,319.117c-9.07-5.831-16.796-13.557-22.627-22.627l-45.281,45.281c-9.256-5.406-20.007-8.52-31.478-8.52-34.531,0-62.625,28.094-62.625,62.625s28.094,62.625,62.625,62.625,62.625-28.094,62.625-62.625c0-11.471-3.114-22.222-8.521-31.478l45.281-45.281h0ZM116.125,426.5c-16.887,0-30.625-13.738-30.625-30.625s13.738-30.625,30.625-30.625,30.625,13.738,30.625,30.625-13.738,30.625-30.625,30.625Z" fill="#9aa0a6"/>
    <path d="M395.875,333.25c-11.471,0-22.222,3.114-31.478,8.52l-45.281-45.281c-5.831,9.07-13.557,16.796-22.627,22.627l45.281,45.281c-5.406,9.256-8.521,20.007-8.521,31.478,0,34.531,28.094,62.625,62.625,62.625s62.625-28.094,62.625-62.625-28.094-62.625-62.625-62.625h.001ZM395.875,426.5c-16.887,0-30.625-13.738-30.625-30.625s13.738-30.625,30.625-30.625,30.625,13.738,30.625,30.625-13.738,30.625-30.625,30.625Z" fill="#4285f4"/>
    <path d="M395.875,53.5c-34.531,0-62.625,28.094-62.625,62.625,0,11.645,3.205,22.551,8.764,31.902l-45.118,45.118c9.03,5.887,16.707,13.663,22.481,22.773l45.444-45.444c9.16,5.255,19.758,8.276,31.054,8.276,34.531,0,62.625-28.094,62.625-62.625s-28.094-62.625-62.625-62.625ZM395.875,146.75c-16.887,0-30.625-13.738-30.625-30.625s13.738-30.625,30.625-30.625,30.625,13.738,30.625,30.625-13.738,30.625-30.625,30.625Z" fill="#9aa0a6"/>
  </g>
</svg>