<?xml version="1.0" encoding="UTF-8"?>
<svg id="standard_product_icon" xmlns="http://www.w3.org/2000/svg" version="1.1" viewBox="0 0 512 512">
  <!-- Generator: Adobe Illustrator 29.2.1, SVG Export Plug-In . SVG Version: 2.1.0 Build 116)  -->
  <g id="bounding_box">
    <rect width="512" height="512" fill="none"/>
  </g>
  <g id="art">
    <path d="M458.5,442.5c0,.32-.01.63-.03.95v.07c-.02.31-.05.61-.09.92-.08.65-.2,1.29-.35,1.92-.08.3-.16.6-.25.9,0,.02-.01.03-.02.05-.09.28-.18.55-.29.83-.03.09-.06.18-.1.27-.1.25-.2.5-.32.74-.13.31-.28.61-.44.9-.01.03-.02.05-.04.08-.16.3-.33.59-.51.87-.19.29-.38.58-.58.86-.01.02-.03.04-.04.06-.19.26-.39.51-.59.76-.02.03-.04.06-.07.08-.23.28-.47.54-.72.8-.5.52-1.03,1-1.59,1.45-.83.67-1.73,1.25-2.68,1.73-.31.16-.63.31-.95.45-.04.02-.07.04-.11.05-.3.12-.6.24-.91.35-.33.12-.67.22-1.02.32-.34.1-.69.18-1.05.26-.35.07-.71.13-1.06.18-.36.05-.71.09-1.07.11h-.03c-.36.03-.72.04-1.09.04H69.501c-5.9,0-11.32-3.25-14.11-8.45-2.78-5.2-2.48-11.52.8-16.43l74.6-111.9c2.96-4.45,7.96-7.12,13.31-7.12h72.07c8.84,0,16,7.16,16,16,0,8.52-6.65,15.48-15.05,15.97-.31.02-.63.03-.95.03h-63.51l-53.26,79.9h313.199l-53.26-79.9h-64.67c-8.84,0-16-7.16-16-16s7.16-16,16-16h73.23c5.35,0,10.35,2.67,13.31,7.12l69.85,104.78,4.75,7.12c1.23,1.84,2.04,3.88,2.43,5.98.03.19.06.39.09.58.11.76.17,1.53.17,2.32h0Z" fill="#4285f4"/>
    <path d="M458.5,442.5c0,.32-.01.63-.03.95v.07c-.02.31-.05.61-.09.92-.07.65-.19,1.29-.35,1.92-.08.3-.16.6-.25.9,0,.02-.01.03-.02.05-.09.28-.18.55-.29.83-.03.09-.06.18-.1.27-.1.25-.2.5-.32.74-.13.31-.28.61-.44.9-.01.03-.02.05-.04.08-.16.3-.33.59-.51.87-.19.29-.38.58-.58.86-.01.02-.03.04-.04.06-.19.26-.39.51-.59.76-.02.03-.04.06-.07.08-.23.28-.47.54-.72.8-.49.52-1.03,1.01-1.59,1.45-.83.67-1.73,1.25-2.68,1.73-.31.16-.63.31-.95.45-.04.02-.07.04-.11.05-.3.12-.6.24-.91.35-.33.12-.67.22-1.02.32-.34.1-.69.18-1.05.26-.35.07-.71.13-1.06.18-.36.05-.71.09-1.07.11h-.03c-.36.03-.72.04-1.09.04H69.501c-5.9,0-11.32-3.25-14.11-8.45-2.78-5.2-2.48-11.52.8-16.43l74.6-111.9c2.96-4.45,7.96-7.12,13.31-7.12h72.07c8.84,0,16,7.16,16,16,0,8.52-6.65,15.48-15.05,15.97-.31.02-.63.03-.95.03h-63.51l-53.26,79.9h351.659l4.75,7.12c1.23,1.84,2.04,3.88,2.43,5.98.03.19.06.39.09.58.11.76.17,1.53.17,2.32h0Z" fill="#9aa0a6"/>
    <path d="M256.001,126.33c-30.38,0-55,24.63-55,55s24.62,55,55,55,55-24.62,55-55-24.62-55-55-55ZM256.001,204.33c-12.68,0-23-10.31-23-23s10.32-23,23-23,23,10.32,23,23-10.32,23-23,23Z" fill="#4285f4"/>
    <path d="M256.001,53.5c-70.52,0-127.899,57.38-127.899,127.9,0,29.05,19.84,71.36,58.96,125.77,1.81,2.51,3.61,4.99,5.41,7.43,8.68,11.79,17.16,22.66,24.65,31.97,6.87,8.53,12.91,15.74,17.52,21.15,5.56,6.52,9.05,10.43,9.45,10.87,2.85,3.17,6.83,5.06,11.06,5.29.28.01.57.02.85.02.36,0,.71-.01,1.07-.04.21-.01.41-.03.62-.05.28-.03.56-.07.84-.11.41-.07.82-.15,1.23-.25.14-.03.27-.06.4-.1.81-.22,1.61-.5,2.39-.86.24-.1.48-.22.72-.34.25-.12.49-.26.73-.39.45-.26.9-.54,1.33-.86.18-.12.35-.25.52-.39.5-.39.99-.82,1.45-1.28.21-.21.41-.42.61-.64.73-.81,11.83-13.23,26.94-31.99,7.5-9.32,15.99-20.2,24.68-32,1.8-2.44,3.6-4.92,5.41-7.43,39.12-54.4,58.96-96.72,58.96-125.77,0-70.52-57.38-127.9-127.899-127.9h-.002ZM299.121,288.26c-.5.7-1.01,1.4-1.52,2.1-3.31,4.58-6.62,9.05-9.89,13.37-.41.55-.83,1.1-1.25,1.65-7.22,9.52-14.17,18.26-20.27,25.74-.83,1.03-1.65,2.03-2.46,3.01-1.09,1.32-2.15,2.6-3.16,3.83-.32.37-.63.75-.94,1.12-.53.64-1.06,1.27-1.57,1.88-.71.85-1.39,1.66-2.06,2.45-10.62-12.6-26.95-32.65-43.12-55.15-45.92-63.91-52.78-94.38-52.78-106.86,0-52.88,43.02-95.9,95.9-95.9s95.9,43.02,95.9,95.9c0,12.48-6.86,42.95-52.78,106.86Z" fill="#4285f4"/>
    <path d="M160.101,181.4h-32c0-70.524,57.376-127.9,127.9-127.9v32c-52.88,0-95.9,43.021-95.9,95.9h0Z" fill="#9aa0a6"/>
    <path d="M383.9,181.4c0,29.05-19.84,71.37-58.96,125.77-1.81,2.51-3.61,4.99-5.41,7.43-8.69,11.8-17.18,22.68-24.68,32-15.11,18.76-26.21,31.18-26.94,31.99-.2.22-.4.43-.61.64-.46.46-.95.89-1.45,1.28-.17.14-.34.27-.52.39-.43.32-.88.6-1.33.86-.24.13-.48.27-.73.39-.24.12-.48.24-.72.34-.78.36-1.58.64-2.39.86-.13.04-.26.07-.4.1-.41.1-.82.18-1.23.25-.28.04-.56.08-.84.11-.21.02-.41.04-.62.05-.36.03-.71.04-1.07.04-.28,0-.57-.01-.85-.02-4.23-.23-8.21-2.12-11.06-5.29-.4-.44-3.89-4.35-9.45-10.87.51-.56,8.63-9.59,9.45-10.5.11-.13,4.7-5.25,11.91-13.81.67-.79,1.35-1.6,2.06-2.45.51-.61,1.04-1.24,1.57-1.88.31-.37.62-.75.94-1.12,1.02-1.24,2.08-2.51,3.16-3.83.81-.98,1.63-1.98,2.46-3.01,6.1-7.48,13.05-16.22,20.27-25.74.42-.55.84-1.1,1.25-1.65,3.27-4.32,6.58-8.79,9.89-13.37.51-.7,1.02-1.4,1.52-2.1,45.92-63.91,52.78-94.38,52.78-106.86h32Z" fill="#9aa0a6"/>
    <path d="M256.001,158.33c12.68,0,23,10.32,23,23s-10.32,23-23,23v32c30.38,0,55-24.62,55-55s-24.62-55-55-55v32Z" fill="#9aa0a6"/>
  </g>
</svg>