<?xml version="1.0" encoding="UTF-8"?>
<svg id="standard_product_icon" xmlns="http://www.w3.org/2000/svg" version="1.1" viewBox="0 0 512 512">
  <!-- Generator: Adobe Illustrator 29.1.0, SVG Export Plug-In . SVG Version: 2.1.0 Build 142)  -->
  <defs>
    <style>
      .st0 {
        fill: none;
      }

      .st1 {
        fill: #4285f4;
      }

      .st2 {
        fill: #34a853;
      }

      .st3 {
        fill: #fbbc04;
      }

      .st4 {
        fill: #ea4335;
      }
    </style>
  </defs>
  <g id="bounding_box">
    <rect class="st0" width="512" height="512"/>
  </g>
  <g id="art">
    <path class="st1" d="M331.2,310.6l-59.5-34.9v-83.4c.1-8.8-7-16-15.9-16h0c-8.8,0-16,7.1-16,16v84c-.1,0-59.1,34.3-59.1,34.3-7.6,4.5-10.2,14.2-5.8,21.9,3,5.1,8.3,8,13.8,8s5.5-.7,8-2.2l59.4-34.6,58.7,34.5c2.5,1.5,5.3,2.2,8.1,2.2,5.5,0,10.8-2.8,13.8-7.9,4.5-7.6,1.9-17.4-5.7-21.9h0Z"/>
    <path class="st3" d="M271.9,215.1l-91.8-52.9c-4.9-2.9-8-8.1-8-13.9v-78.3c0-8.8,7.2-16,16-16s16,7.2,16,16v69.1l51.8,29.9,51.8-29.9v-69.1c0-8.8,7.2-16,16-16s16,7.2,16,16v78.3c0,5.7-3,11-8,13.9l-59.8,34.5v18.4Z"/>
    <path class="st2" d="M121.3,458c-5.5,0-10.9-2.9-13.9-8-4.4-7.6-1.8-17.4,5.8-21.9l59.7-34.6v-59.8c-.1,0-52-29.8-52-29.8l-59.7,34.6c-7.6,4.4-17.4,1.8-21.9-5.8-4.4-7.6-1.8-17.4,5.8-21.9l67.7-39.3c4.9-2.9,11-2.9,16,0l59.9,34.4,16.1-9.3v106.1c.2,5.7-2.9,11-7.8,13.9l-67.7,39.3c-2.5,1.5-5.3,2.2-8,2.2h0Z"/>
    <path class="st4" d="M390.7,458c-2.7,0-5.5-.7-8-2.2l-67.7-39.3c-5-2.9-8-8.2-8-13.9v-69.1c.1,0-16.3-9.6-16.3-9.6l92.3-52.4c5-2.9,11.1-2.8,16,0l67.7,39.3c7.6,4.4,10.2,14.2,5.8,21.9-4.4,7.6-14.2,10.2-21.9,5.8l-59.7-34.6-51.9,29.8v59.8c-.1,0,59.6,34.6,59.6,34.6,7.6,4.4,10.2,14.2,5.8,21.9-3,5.1-8.3,8-13.9,8h0Z"/>
  </g>
</svg>