<?xml version="1.0" encoding="UTF-8"?>
<svg id="standard_product_lockup" xmlns="http://www.w3.org/2000/svg" version="1.1" viewBox="0 0 512 512">
  <!-- Generator: Adobe Illustrator 29.1.0, SVG Export Plug-In . SVG Version: 2.1.0 Build 142)  -->
  <defs>
    <style>
      .st0 {
        fill: none;
      }

      .st1 {
        fill: #4285f4;
      }

      .st2 {
        fill: #34a853;
      }

      .st3 {
        fill: #fbbc04;
      }

      .st4 {
        fill: #ea4335;
      }

      .st5 {
        fill: #4384f4;
      }
    </style>
  </defs>
  <rect id="bounding_box" class="st0" width="512" height="512"/>
  <g id="art">
    <path class="st3" d="M256,272c-2.5,0-5-.6-7.3-1.8L62.4,174.1c-5.4-2.8-8.7-8.4-8.7-14.4s3.6-11.6,9-14.2L249,55.3c4.4-2.1,9.5-2.1,13.9,0l186.2,90.1c5.5,2.6,9,8.1,9,14.2s-3.3,11.6-8.7,14.4l-186.2,96.2c-2.3,1.2-4.8,1.8-7.3,1.8h0ZM105.5,160.3l150.5,77.7,150.5-77.7-150.5-72.8-150.5,72.8Z"/>
    <path class="st1" d="M458.2,256.6h0v-96.6c0-8.8-7.1-16-16-16s-16,7.1-16,16v86.9l-170,87.8-170-87.8-8.7-4.5c-7.8-4.1-17.5-1-21.5,6.9-1.2,2.3-1.8,4.9-1.8,7.3,0,5.8,3.2,11.4,8.7,14.2l23.3,12,162.7,84c.5.3,1.1.5,1.6.7,1.9.7,3.8,1.1,5.7,1.1h0c2.5,0,5-.6,7.3-1.8l27.5-14.2,135.2-69.8v159.2c0,8.8,7.1,16,16,16s16-7.1,16-16v-185.3h0q0-.1,0-.1Z"/>
    <path class="st2" d="M256.2,334.7l-170-87.8-.4-86.9c0-8.8-7.2-16-16-16s-16,7.1-16,16v96.6h0v185.5c0,8.8,7.2,16,16,16s16-7.1,16-16l.4-159.2,162.7,84c.5.3,1.1.5,1.6.7,1.9.7,3.8,1.1,5.7,1.1h0c2.5,0,5-.6,7.3-1.8l27.5-14.2-34.8-18h0Z"/>
    <polygon class="st5" points="256 194.5 192 161.8 256 131.5 320 161.8 256 194.5"/>
    <path class="st4" d="M256,272c-5.8,0-11.4-3.2-14.2-8.7-4.1-7.9-1-17.5,6.9-21.6l157.8-81.5-187.2-90.6c4.7-2.3,20.7-10,29.1-14.1,5.2-2.6,9.7-2.6,14.6-.3l186.2,90.1c5.5,2.6,9,8.1,9,14.2s-3.3,11.6-8.7,14.4l-186.2,96.2c-2.4,1.2-4.9,1.8-7.3,1.8h0Z"/>
    <path class="st0" d="M105.5,160.3l150.5,77.7,150.5-77.7-150.5-72.8-150.5,72.8Z"/>
    <path class="st3" d="M263.3,270.2c-2.3,1.2-4.8,1.8-7.3,1.8s-5-.6-7.3-1.8L62.4,174.1c-5.4-2.8-8.7-8.4-8.7-14.4s3.6-11.6,9-14.2l13.2-6.4,29.5,21.3,185.3,95.7"/>
  </g>
</svg>