<?xml version="1.0" encoding="UTF-8"?>
<svg id="standard_product_icon" xmlns="http://www.w3.org/2000/svg" version="1.1" viewBox="0 0 512 512">
  <!-- Generator: Adobe Illustrator 29.1.0, SVG Export Plug-In . SVG Version: 2.1.0 Build 142)  -->
  <g id="bounding_box">
    <rect width="512" height="512" fill="none"/>
  </g>
  <g id="art">
    <path d="M426.5,458.5H85.5c-17.64,0-32-14.36-32-32V85.5c0-17.64,14.36-32,32-32h341c17.64,0,32,14.36,32,32v341c0,17.64-14.36,32-32,32ZM85.5,85.5v341h341.02l-.02-341H85.5Z" fill="#fbbc04"/>
    <path d="M85.5,458.5c-17.64,0-32-14.36-32-32V85.5c0-17.64,14.36-32,32-32h341v32H85.5v373Z" fill="#ea4335"/>
    <path d="M346.34,203.56c-6.57-38.3-36.64-68.34-74.96-74.87-4.97-1.06-10.1-1.66-15.39-1.66-4.94,0-9.71.61-14.37,1.54-32.94,5.16-59.94,27.59-71.5,57.91-25.03,8.8-43.1,32.26-43.1,60.31,0,35.61,28.87,64.48,64.48,64.48h138.18c30.53,0,55.27-24.75,55.27-55.27,0-24.69-16.29-45.34-38.63-52.44h.02ZM353.33,260.33c0,10.18-8.25,18.42-18.42,18.42h-146.41c-5.45,0-10.53-1.59-14.81-4.31-8.61-5.23-14.35-14.69-14.35-25.49s5.75-20.27,14.35-25.49c4.28-2.73,9.36-4.31,14.81-4.31h7.89v-.35c0-32.72,26.53-59.25,59.25-59.25h.7c32.73,0,59.25,26.53,59.25,59.25v20.22h19.31c10.18,0,18.42,8.25,18.42,18.42v2.89h.01Z" fill="#34a853"/>
    <path d="M366.54,382.54h-221.09c-8.84,0-16-7.16-16-16s7.16-16,16-16h221.09c8.84,0,16,7.16,16,16s-7.16,16-16,16Z" fill="#4285f4"/>
  </g>
</svg>