<?xml version="1.0" encoding="UTF-8"?>
<svg id="Standard_Product_Icon" xmlns="http://www.w3.org/2000/svg" version="1.1" viewBox="0 0 512 512">
  <!-- Generator: Adobe Illustrator 29.1.0, SVG Export Plug-In . SVG Version: 2.1.0 Build 142)  -->
  <g id="bounding_box">
    <rect width="512" height="512" fill="none"/>
  </g>
  <g id="Art">
    <path d="M349,272h-15.5c-8.837,0-16-7.163-16-16s7.163-16,16-16h15.5c42.458,0,77-34.542,77-77s-34.542-77-77-77c-8.837,0-16-7.163-16-16s7.163-16,16-16c60.103,0,109,48.897,109,109s-48.897,109-109,109Z" fill="#9aa0a6"/>
    <path d="M163,458c-60.103,0-109-48.897-109-109s48.897-109,109-109h15.5c8.837,0,16,7.163,16,16s-7.163,16-16,16h-15.5c-42.458,0-77,34.542-77,77s34.542,77,77,77c8.837,0,16,7.163,16,16s-7.163,16-16,16Z" fill="#9aa0a6"/>
    <path d="M163,458v-32c42.458,0,77-34.542,77-77v-186c0-60.103,48.897-109,109-109v32c-42.458,0-77,34.542-77,77v186c0,60.103-48.897,109-109,109Z" fill="#4285f4"/>
  </g>
</svg>