<?xml version="1.0" encoding="UTF-8"?>
<svg id="standard_product_icon" xmlns="http://www.w3.org/2000/svg" version="1.1" viewBox="0 0 512 512">
  <!-- Generator: Adobe Illustrator 29.1.0, SVG Export Plug-In . SVG Version: 2.1.0 Build 142)  -->
  <g id="bounding_box">
    <rect width="512" height="512" fill="none"/>
  </g>
  <g id="art">
    <path d="M293.243,346.487H107.025c-29.358,0-53.243-23.885-53.243-53.244V107.025c0-29.358,23.885-53.243,53.243-53.243h176.061c34.96,0,63.401,28.441,63.401,63.4v8.451c0,8.837-7.163,16-16,16s-16-7.163-16-16v-8.451c0-17.314-14.087-31.4-31.401-31.4H107.025c-11.714,0-21.243,9.529-21.243,21.243v186.218c0,11.714,9.529,21.244,21.243,21.244h186.218c11.714,0,21.244-9.53,21.244-21.244v-19.076c0-8.837,7.163-16,16-16s16,7.163,16,16v19.076c0,29.359-23.885,53.244-53.244,53.244h0Z" fill="#4285f4"/>
    <path d="M404.975,458.218h-176.061c-34.96,0-63.401-28.441-63.401-63.4v-8.462c0-8.837,7.163-16,16-16s16,7.163,16,16v8.462c0,17.314,14.087,31.4,31.401,31.4h176.061c11.714,0,21.243-9.529,21.243-21.243v-186.218c0-11.714-9.529-21.244-21.243-21.244h-176.061c-17.314,0-31.401,14.087-31.401,31.401v8.485c0,8.837-7.163,16-16,16s-16-7.163-16-16v-8.485c0-34.96,28.441-63.401,63.401-63.401h176.061c29.358,0,53.243,23.885,53.243,53.244v186.218c0,29.358-23.885,53.243-53.243,53.243Z" fill="#9aa0a6"/>
  </g>
</svg>