<?xml version="1.0" encoding="UTF-8"?>
<svg id="standard_product_icon" xmlns="http://www.w3.org/2000/svg" version="1.1" viewBox="0 0 512 512">
  <!-- Generator: Adobe Illustrator 29.1.0, SVG Export Plug-In . SVG Version: 2.1.0 Build 142)  -->
  <g id="bounding_box">
    <rect width="512" height="512" fill="none"/>
  </g>
  <g id="art">
    <path d="M420.05,252.79c20.47-16.26,33.62-41.35,33.62-69.46,0-48.89-39.78-88.67-88.67-88.67s-88.67,39.78-88.67,88.67c0,28.11,13.15,53.2,33.62,69.46-29.81,14.69-52.96,40.9-63.59,72.8-11.71-15.33-26.87-27.87-44.32-36.47,20.47-16.26,33.62-41.35,33.62-69.46,0-48.89-39.78-88.67-88.67-88.67s-88.67,39.78-88.67,88.67c0,28.11,13.15,53.2,33.62,69.46-41.4,20.39-69.95,63.02-69.95,112.21,0,8.84,7.16,16,16,16s16-7.16,16-16c0-51.28,41.72-93,93-93s93,41.72,93,93c0,8.84,7.16,16,16,16s16-7.16,16-16c0-2.48-.08-4.93-.22-7.37.13-.83.22-1.69.22-2.56v-26.4c0-51.28,41.72-93,93-93s93,41.72,93,93c0,8.84,7.16,16,16,16s16-7.16,16-16c0-49.18-28.56-91.81-69.95-112.21h.01ZM90.33,219.67c0-31.25,25.42-56.67,56.67-56.67s56.67,25.42,56.67,56.67-25.42,56.67-56.67,56.67-56.67-25.42-56.67-56.67ZM308.33,183.33c0-31.25,25.42-56.67,56.67-56.67s56.67,25.42,56.67,56.67-25.42,56.67-56.67,56.67-56.67-25.42-56.67-56.67h0Z" fill="#9aa0a6"/>
    <path d="M202.05,289.13c20.47-16.26,33.62-41.35,33.62-69.46,0-48.89-39.78-88.67-88.67-88.67v32c31.25,0,56.67,25.42,56.67,56.67s-25.42,56.67-56.67,56.67v32c51.28,0,93,41.72,93,93,0,8.84,7.16,16,16,16s16-7.16,16-16c0-49.18-28.56-91.81-69.95-112.21h0Z" fill="#4285f4"/>
    <path d="M420.05,252.79c20.47-16.26,33.62-41.35,33.62-69.46,0-48.89-39.78-88.67-88.67-88.67v32c31.25,0,56.67,25.42,56.67,56.67s-25.42,56.67-56.67,56.67v32c51.28,0,93,41.72,93,93,0,8.84,7.16,16,16,16s16-7.16,16-16c0-49.18-28.56-91.81-69.95-112.21h0Z" fill="#4285f4"/>
  </g>
</svg>