<?xml version="1.0" encoding="UTF-8"?>
<svg id="standard_product_icon" xmlns="http://www.w3.org/2000/svg" version="1.1" viewBox="0 0 512 512">
  <!-- Generator: Adobe Illustrator 29.2.1, SVG Export Plug-In . SVG Version: 2.1.0 Build 116)  -->
  <g id="bounding_box">
    <rect width="512" height="512" fill="none"/>
  </g>
  <g id="art">
    <path d="M256.004,287.542c-43.08,0-78.128-35.065-78.128-78.167s35.048-78.167,78.128-78.167,78.129,35.065,78.129,78.167-35.049,78.167-78.129,78.167ZM256.004,163.208c-25.435,0-46.128,20.71-46.128,46.167s20.693,46.167,46.128,46.167,46.129-20.71,46.129-46.167-20.693-46.167-46.129-46.167h0Z" fill="#4285f4"/>
    <path d="M153.505,376.416c-.752,0-1.511-.053-2.276-.162-8.748-1.245-14.83-9.347-13.584-18.096,4.021-28.244,18.11-54.191,39.672-73.062,21.776-19.059,49.72-29.555,78.682-29.555,8.837,0,16,7.163,16,16s-7.163,16-16,16c-21.207,0-41.666,7.684-57.607,21.636-15.801,13.828-26.123,32.825-29.066,53.492-1.137,7.982-7.983,13.746-15.819,13.746h-.002Z" fill="#9aa0a6"/>
    <path d="M358.493,376.427c-7.838,0-14.685-5.764-15.82-13.748-2.94-20.669-13.262-39.668-29.063-53.499-15.941-13.953-36.401-21.638-57.61-21.638-8.837,0-16-7.163-16-16s7.163-16,16-16c28.964,0,56.909,10.497,78.687,29.559,21.562,18.873,35.65,44.823,39.669,73.07,1.244,8.749-4.839,16.85-13.587,18.095-.765.108-1.523.161-2.274.161h-.002Z" fill="#4285f4"/>
    <path d="M256.004,287.542c-43.08,0-78.128-35.065-78.128-78.167s35.048-78.167,78.128-78.167v32c-25.435,0-46.128,20.71-46.128,46.167s20.693,46.167,46.128,46.167v32Z" fill="#9aa0a6"/>
    <path d="M437.95,151.09c-.01-.13-.03-.26-.04-.39-.02-.18-.04-.37-.07-.55-.05-.37-.12-.74-.19-1.1-.08-.36-.17-.72-.27-1.07-.15-.53-.33-1.05-.54-1.56-.06-.15-.12-.3-.18-.44-.23-.55-.5-1.08-.8-1.59-.08-.14-.16-.28-.25-.42-.19-.31-.4-.61-.61-.91-.21-.29-.42-.57-.65-.85l-.02-.02c-.23-.28-.47-.55-.72-.81-.01-.01-.02-.02-.02-.02-.19-.21-.39-.41-.6-.6-.27-.26-.55-.5-.83-.73-.13-.11-.26-.21-.39-.31-.14-.11-.28-.22-.42-.31-.13-.1-.25-.19-.38-.28-.33-.22-.67-.43-1.02-.62-.21-.13-.41-.24-.63-.35-.13-.07-.25-.13-.38-.19l-137.13-68.47-.07-.03-28.59-14.28c-4.17-2.09-9.03-2.24-13.3-.46-.33.14-.66.29-1,.46l-166,82.88c-5.42,2.71-8.85,8.26-8.85,14.32v103.13c0,44.24,21.16,86.5,56.59,113.04l98.72,73.94v.01l17.1,12.8c1.43,1.07,2.99,1.87,4.6,2.39.61.21,1.23.37,1.85.49.78.16,1.57.25,2.35.29.28.01.55.02.8.02.3,0,.59-.01.89-.03.21-.01.41-.02.62-.04.42-.04.85-.1,1.27-.18.25-.04.5-.09.74-.15.07-.01.15-.03.22-.04.01,0,.02-.01.02-.01.24-.06.48-.12.71-.19.26-.07.52-.15.78-.25.3-.11.61-.22.91-.35h.01c.28-.11.55-.24.82-.37.59-.28,1.17-.61,1.73-.99.18-.11.37-.23.54-.36.11-.07.21-.15.32-.23l115.82-86.75c35.43-26.54,56.59-68.8,56.59-113.04v-103.13c0-.44-.02-.87-.05-1.3h0ZM406,255.52c0,34.21-16.37,66.9-43.78,87.43l-106.22,79.56-106.22-79.56c-27.41-20.53-43.78-53.22-43.78-87.43v-93.24l150-74.9,150,74.9v93.24h0Z" fill="#9aa0a6"/>
    <path d="M268.81,452.09c-.94,1.25-2.03,2.33-3.22,3.22-.11.08-.21.16-.32.23-.17.13-.36.25-.54.36-.56.38-1.14.71-1.73.99-.27.13-.54.26-.82.37h-.01c-.3.13-.61.24-.91.35-.26.09-.52.17-.78.25-.23.07-.47.13-.71.19,0,0-.01.01-.02.01-.07.01-.15.03-.22.04-.24.06-.49.11-.74.15-.42.08-.85.14-1.27.18-.21.02-.41.03-.62.04-.3.02-.59.03-.89.03-.25,0-.52-.01-.8-.02-.78-.04-1.57-.13-2.35-.29-.62-.12-1.24-.28-1.85-.49-1.61-.52-3.17-1.32-4.6-2.39l-17.1-12.8v-.01l-98.72-73.94c-35.43-26.54-56.59-68.8-56.59-113.04v-103.13c0-6.06,3.43-11.61,8.85-14.32L248.85,55.19c.34-.17.67-.32,1-.46,4.27-1.78,9.13-1.63,13.3.46l28.59,14.28.07.03-35.81,17.88-150,74.9v93.24c0,34.21,16.37,66.9,43.78,87.43l106.22,79.56,9.59,7.18c7.07,5.3,8.51,15.33,3.22,22.4h0Z" fill="#4285f4"/>
    <path d="M438,152.39v103.13c0,44.24-21.16,86.5-56.59,113.04l-115.82,86.75c-.11.08-.21.16-.32.23-.17.13-.36.25-.54.36-.56.38-1.14.71-1.73.99-.27.13-.54.26-.82.37h-.01c-.3.13-.61.24-.91.35-.26.1-.52.18-.78.25-.23.07-.47.13-.71.19,0,0-.01.01-.02.01-.32.07-.64.14-.96.19-.42.08-.85.14-1.27.18-.21.02-.41.03-.62.04-.3.02-.59.03-.89.03-.25,0-.52-.01-.8-.02-.78-.04-1.57-.13-2.35-.29-.62-.12-1.24-.28-1.85-.49-1.61-.52-3.17-1.32-4.6-2.39l-17.1-12.8v-.01l26.69-19.99,106.22-79.56c27.41-20.53,43.78-53.22,43.78-87.43v-103.13c0-8.84,7.16-16,16-16,2.49,0,4.84.57,6.94,1.58.13.06.25.12.38.19.22.11.42.22.63.35.35.19.69.4,1.02.62.13.09.25.18.38.28.14.09.28.2.42.31.13.1.26.2.39.31.28.23.56.47.83.73.21.19.41.39.6.6,0,0,.01.01.02.02.25.26.49.53.72.81l.02.02c.23.28.44.56.65.85.21.3.42.6.61.91.09.14.17.28.25.42.3.51.57,1.04.8,1.59.06.14.12.29.18.44.21.51.39,1.03.54,1.56.1.35.19.71.27,1.07.07.36.14.73.19,1.1.03.18.05.37.07.55.01.13.03.26.04.39.03.43.05.86.05,1.3h0Z" fill="#9aa0a6"/>
  </g>
</svg>