<?xml version="1.0" encoding="UTF-8"?>
<svg id="standard_product_icon" xmlns="http://www.w3.org/2000/svg" version="1.1" viewBox="0 0 512 512">
  <!-- Generator: Adobe Illustrator 29.1.0, SVG Export Plug-In . SVG Version: 2.1.0 Build 142)  -->
  <g id="bounding_box">
    <rect width="512" height="512" fill="none"/>
  </g>
  <g id="art">
    <circle cx="256" cy="101.667" r="16" fill="#9aa0a6"/>
    <circle cx="410.972" cy="256" r="16" fill="#4285f4"/>
    <circle cx="144.323" cy="144.524" r="16" fill="#9aa0a6"/>
    <circle cx="101.667" cy="256" r="16" fill="#9aa0a6"/>
    <path d="M256,490c-62.504,0-121.267-24.34-165.463-68.537-44.197-44.196-68.537-102.959-68.537-165.463s24.34-121.267,68.537-165.463c44.196-44.197,102.959-68.537,165.463-68.537s121.267,24.34,165.463,68.537c44.197,44.196,68.537,102.959,68.537,165.463s-24.34,121.267-68.537,165.463c-44.196,44.197-102.959,68.537-165.463,68.537ZM256,54c-111.383,0-202,90.617-202,202s90.617,202,202,202,202-90.617,202-202S367.383,54,256,54Z" fill="#9aa0a6"/>
    <path d="M378.313,133.687c-6.248-6.248-16.379-6.248-22.627,0l-61.027,61.027c-11.199-7.09-24.453-11.213-38.66-11.213-39.977,0-72.5,32.523-72.5,72.5s32.523,72.5,72.5,72.5,72.5-32.523,72.5-72.5c0-14.207-4.124-27.461-11.213-38.66l61.027-61.027c6.249-6.248,6.249-16.379,0-22.627h0ZM256,292.5c-20.126,0-36.5-16.374-36.5-36.5s16.374-36.5,36.5-36.5,36.5,16.374,36.5,36.5-16.374,36.5-36.5,36.5Z" fill="#4285f4"/>
    <path d="M490,256h-32c0-111.383-90.617-202-202-202V22c62.504,0,121.267,24.34,165.463,68.537,44.197,44.196,68.537,102.959,68.537,165.463Z" fill="#4285f4"/>
    <path d="M256,490c-62.504,0-121.267-24.34-165.463-68.537-44.197-44.196-68.537-102.959-68.537-165.463h32c0,111.383,90.617,202,202,202v32Z" fill="#4285f4"/>
  </g>
</svg>