<?xml version="1.0" encoding="UTF-8"?>
<svg id="standard_product_icon" xmlns="http://www.w3.org/2000/svg" version="1.1" viewBox="0 0 512 512">
  <!-- Generator: Adobe Illustrator 29.2.1, SVG Export Plug-In . SVG Version: 2.1.0 Build 116)  -->
  <g id="bounding_box">
    <rect width="512" height="512" fill="none"/>
  </g>
  <g id="art">
    <path d="M458.329,235.129c0-17.645-14.355-32-32-32h-170.6c-17.645,0-32,14.355-32,32v95.271c0,.111.014.219.017.33-.002.111-.017.219-.017.33v95.27c0,17.645,14.355,32,32,32h170.6c17.645,0,32-14.355,32-32v-95.27c0-.111-.014-.219-.017-.33.002-.111.017-.219.017-.33v-95.271ZM255.729,235.129h170.6v79.271h-170.6v-79.271ZM426.329,426.329h-170.6v-79.27h170.604l.017,79.269h-.021Z" fill="#9aa0a6"/>
    <path d="M143.299,232.268c-8.837,0-16-7.163-16-16,0-89.293,72.646-161.938,161.938-161.938,28.928,0,57.324,7.725,82.12,22.34,24.053,14.177,44.156,34.442,58.137,58.606,4.426,7.648,1.812,17.437-5.836,21.861-7.646,4.425-17.436,1.813-21.861-5.836-23.188-40.076-66.318-64.972-112.56-64.972-71.648,0-129.938,58.29-129.938,129.938,0,8.837-7.163,16-16,16h0Z" fill="#9aa0a6"/>
    <path d="M255.729,458.325h0c-17.673,0-32-14.327-32-32v-111.926h202.6v-111.273h0c17.673,0,32,14.327,32,32v111.273h-202.6v111.926Z" fill="#2b80f8"/>
    <path d="M163.535,370.529h-8.03c-38.144,0-69.176-31.012-69.176-69.131,0-34.164,25.469-63.58,59.241-68.425,8.271-1.187,14.143-8.502,13.697-16.69l.031-.016c.012-8.895,1.248-18.035,1.248-18.035-8.317.896-29.311,4.906-32.769,5.891-.012.003-.028.007-.028.007h0c-18.652,5.319-35.521,15.957-48.452,30.747-16.101,18.416-24.968,42.04-24.968,66.521,0,55.764,45.388,101.131,101.176,101.131h8.03c8.837,0,16-7.163,16-16s-7.163-16-16-16h0Z" fill="#2b80f8"/>
  </g>
</svg>