<?xml version="1.0" encoding="UTF-8"?>
<svg id="standard_product_icon" xmlns="http://www.w3.org/2000/svg" version="1.1" viewBox="0 0 512 512">
  <!-- Generator: Adobe Illustrator 29.1.0, SVG Export Plug-In . SVG Version: 2.1.0 Build 142)  -->
  <defs>
    <style>
      .st0 {
        fill: none;
      }

      .st1 {
        fill: #4285f4;
      }

      .st2 {
        fill: #34a853;
      }

      .st3 {
        fill: #fbbc04;
      }

      .st4 {
        fill: #ea4335;
      }
    </style>
  </defs>
  <g id="bounding_box">
    <rect class="st0" width="512" height="512"/>
  </g>
  <g id="art">
    <path class="st4" d="M69.7,256c0-21.9,0-184.3,0-186,0-6.5,3.9-12.3,9.8-14.8s12.8-1.1,17.4,3.4l159,157.9L414.9,58.6c6.3-6.2,16.4-6.2,22.6,0,6.2,6.3,6.2,16.4,0,22.6l-170.2,169.1c-6.2,6.2-16.3,6.2-22.6,0L101.7,108.4v147.6s-17.2,20.5-17.2,20.5l-14.8-20.5h0Z"/>
    <path class="st1" d="M261.5,427c-1.6-.6-157.1-60.3-159.8-171h-32c.6,30.8,10.4,60.5,29.3,88.4,15.1,22.4,36.1,43.5,62.2,63,43.9,32.5,87.2,48.9,89.1,49.6,1.9.7,3.7,1,5.6,1,6.5,0,12.6-4,15-10.4,3.1-8.3-1.1-17.5-9.4-20.6h0Z"/>
    <path class="st2" d="M426.1,274.4c-8.8,0-16-7.2-16-16v-70.1c0-8.8,7.2-16,16-16s16,7.2,16,16v70.1c0,8.8-7.2,16-16,16Z"/>
    <path class="st3" d="M410.1,256c-2.7,110.7-158.2,170.4-159.8,171-.4.1-.8.3-1.1.5l-31.5,14.7s16.1,8.2,27.5,12.8c4.4,1.8,7,3,10.7,3s6.2-1.3,6.2-1.3c5.8-2.2,47.1-18.7,88.6-49.5,26.1-19.4,47-40.6,62.1-62.9,18.8-27.9,28.6-57.5,29.2-88.3h-32Z"/>
  </g>
</svg>