<?xml version="1.0" encoding="UTF-8"?>
<svg id="standard_product_icon" xmlns="http://www.w3.org/2000/svg" version="1.1" viewBox="0 0 512 512">
  <!-- Generator: Adobe Illustrator 29.1.0, SVG Export Plug-In . SVG Version: 2.1.0 Build 142)  -->
  <defs>
    <style>
      .st0 {
        fill: none;
      }

      .st1 {
        fill: #4285f4;
      }

      .st2 {
        fill: #34a853;
      }

      .st3 {
        fill: #fbbc04;
      }

      .st4 {
        fill: #ea4335;
      }
    </style>
  </defs>
  <g id="bounding_box">
    <rect class="st0" width="512" height="512"/>
  </g>
  <g id="art">
    <path class="st3" d="M447.5,123.7l-186-68.7c-3.6-1.3-7.5-1.3-11.1,0l-40.7,15-145.2,53.5c-6.3,2.3-10.5,8.3-10.5,15s4.2,12.7,10.5,15l145.1,53.4s0,0,0,0l40.8,15c1.8.6,3.7,1,5.5,1s3.7-.3,5.5-1l185.9-68.2c6.3-2.3,10.5-8.3,10.5-15,0-6.7-4.2-12.7-10.5-15h0ZM256,189.9l-139.6-51.4,139.6-51.4,139.7,51.6-139.6,51.2Z"/>
    <path class="st2" d="M447.5,388.8l-185.9,68.2c-1.8.6-3.6,1-5.5,1s-3.7-.3-5.5-1l-40.8-15h0l-145.1-53.4c-8.3-3-12.5-12.2-9.5-20.5,3-8.3,12.2-12.5,20.5-9.5l180.4,66.4,180.4-66.2c8.3-3,17.5,1.2,20.5,9.5,3,8.3-1.2,17.5-9.5,20.5h0Z"/>
    <path class="st2" d="M447.5,310.4l-185.9,68.2c-1.8.6-3.6,1-5.5,1s-3.7-.3-5.5-1l-40.8-15h0l-145.1-53.4c-8.3-3-12.5-12.2-9.5-20.5,3-8.3,12.2-12.5,20.5-9.5l180.4,66.4,180.4-66.2c8.3-3,17.5,1.2,20.5,9.5,3,8.3-1.2,17.5-9.5,20.5h0Z"/>
    <path class="st2" d="M447.5,232.1l-185.9,68.2c-1.8.7-3.6,1-5.5,1s-3.7-.3-5.5-1l-40.8-15h0l-145.1-53.4c-8.3-3.1-12.5-12.2-9.5-20.5,3-8.3,12.2-12.5,20.5-9.5l180.4,66.4,180.4-66.2c8.3-3,17.5,1.2,20.5,9.5,3,8.3-1.2,17.5-9.5,20.5h0Z"/>
    <path class="st4" d="M458,138.7c0,6.7-4.2,12.7-10.5,15l-186,68.2c-1.8.7-3.6,1-5.5,1s-3.7-.3-5.5-1l-40.8-15h0s46.4-17,46.4-17l139.6-51.2-139.7-51.6-46.2-17.1,40.7-15c3.6-1.3,7.5-1.3,11.1,0l186,68.7c6.3,2.3,10.5,8.3,10.5,15h0Z"/>
    <path class="st1" d="M447.5,388.8l-185.9,68.2c-1.8.6-3.6,1-5.5,1s-3.7-.3-5.5-1l-40.8-15,46.4-17,180.4-66.2c8.3-3,17.5,1.2,20.5,9.5,3,8.3-1.2,17.5-9.5,20.5h0Z"/>
    <path class="st1" d="M447.5,310.4l-185.9,68.2c-1.8.6-3.6,1-5.5,1s-3.7-.3-5.5-1l-40.8-15h0l46.4-17,180.4-66.2c8.3-3,17.5,1.2,20.5,9.5,3,8.3-1.2,17.5-9.5,20.5Z"/>
    <path class="st1" d="M447.5,232.1l-185.9,68.2c-1.8.7-3.6,1-5.5,1s-3.7-.3-5.5-1l-40.8-15h0l46.4-17,180.4-66.2c8.3-3,17.5,1.2,20.5,9.5,3,8.3-1.2,17.5-9.5,20.5h0Z"/>
    <path class="st3" d="M302.4,206.9l-186-68.5-51.8-15c-6.3,2.3-10.5,8.3-10.5,15s4.2,12.7,10.5,15l145.1,53.4s0,0,0,0l40.8,15c1.8.6,3.7,1,5.5,1s3.7-.3,5.5-1l40.9-15h0Z"/>
  </g>
</svg>