<?xml version="1.0" encoding="UTF-8"?>
<svg id="standard_product_icon" xmlns="http://www.w3.org/2000/svg" version="1.1" viewBox="0 0 512 512">
  <!-- Generator: Adobe Illustrator 29.1.0, SVG Export Plug-In . SVG Version: 2.1.0 Build 142)  -->
  <defs>
    <style>
      .st0 {
        fill: none;
      }

      .st1 {
        fill: #4285f4;
      }

      .st2 {
        fill: #9aa0a6;
      }
    </style>
  </defs>
  <g id="bounding_box">
    <rect class="st0" width="512" height="512"/>
  </g>
  <g id="art">
    <path class="st2" d="M70,253.4c-4.6,0-9.1-2-12.3-5.8-5.7-6.8-4.8-16.9,2-22.5l111.6-93.1c3.9-3.3,9.2-4.5,14.1-3.2l140,35,105.2-105.1c6.2-6.2,16.4-6.2,22.6,0,6.2,6.2,6.2,16.4,0,22.6l-111.6,111.5c-4,4-9.7,5.6-15.2,4.2l-140.9-35.2-105.4,87.9c-3,2.5-6.6,3.7-10.2,3.7h0Z"/>
    <path class="st1" d="M70,458c-8.8,0-16-7.2-16-16v-55.8c0-8.8,7.2-16,16-16s16,7.2,16,16v55.8c0,8.8-7.2,16-16,16Z"/>
    <path class="st1" d="M330.4,458c-8.8,0-16-7.2-16-16v-93c0-8.8,7.2-16,16-16s16,7.2,16,16v93c0,8.8-7.2,16-16,16Z"/>
    <path class="st2" d="M181.6,458c-8.8,0-16-7.2-16-16v-130.2c0-8.8,7.2-16,16-16s16,7.2,16,16v130.2c0,8.8-7.2,16-16,16Z"/>
    <path class="st2" d="M442,458c-8.8,0-16-7.2-16-16v-167.4c0-8.8,7.2-16,16-16s16,7.2,16,16v167.4c0,8.8-7.2,16-16,16Z"/>
    <path class="st1" d="M70,253.4c-4.6,0-9.1-2-12.3-5.8-5.7-6.8-4.8-16.9,2-22.5l111.6-93.1c4.2-3.5,8.7-4.1,12.1-3.6,2.2.3,4.9,1.1,7.5,1.7,6.9,1.6,16,4,25.1,6.3l-135.8,113.3c-3,2.5-6.6,3.7-10.2,3.7h0Z"/>
    <path class="st1" d="M442,197.6c-8.8,0-16-7.2-16-16v-95.6h-95.6c-8.8,0-16-7.2-16-16s7.2-16,16-16h111.6c8.8,0,16,7.2,16,16v111.6c0,8.8-7.2,16-16,16h0Z"/>
  </g>
</svg>