<?xml version="1.0" encoding="UTF-8"?>
<svg id="standard_product_icon" xmlns="http://www.w3.org/2000/svg" version="1.1" viewBox="0 0 512 512">
  <!-- Generator: Adobe Illustrator 29.1.0, SVG Export Plug-In . SVG Version: 2.1.0 Build 142)  -->
  <g id="bounding_box">
    <rect width="512" height="512" fill="none"/>
  </g>
  <g id="art">
    <path d="M256,490.245h-.118c-.011-.003-.018,0-.025,0h-.066c-.01-.002-.022,0-.034,0h-.032c-.012-.003-.022-.002-.033,0-.012,0-.023-.002-.035,0h-.134c-.01.002-.021,0-.033,0-.005.002-.021,0-.034-.002h0c-.011,0-.025-.003-.033,0-.011,0-.025-.002-.032,0-2.562-.098-5.104-.812-7.4-2.14q-1.531-.885-.002,0l-185.993-106.88c-4.967-2.854-8.028-8.146-8.028-13.873v-223.5c-.02-1.075.069-2.147.262-3.197.154-.839.374-1.66.656-2.456,1.206-3.41,3.568-6.43,6.909-8.413.098-.059.197-.116.298-.173h0L248.092,23.846c4.919-2.797,10.949-2.788,15.858.024l183.963,105.338c5.93,2.342,10.124,8.124,10.124,14.887v223.245c0,5.728-3.062,11.019-8.028,13.873l-185.993,106.88h-.002c-2.305,1.334-4.86,2.048-7.434,2.141h-.032c-.012,0-.012.002-.034.002h-.034c-.011,0-.021.002-.032,0h-.032c-.012.002-.025,0-.033,0h-.069c-.012,0-.023-.002-.035,0h-.132c-.008,0-.015-.002-.025,0h-.118l-.004.009ZM272,264.496v182.102l154.037-88.518v-185.933l-154.037,92.349h0ZM85.963,358.08l154.037,88.518v-182.117l-154.037-92.656v186.256h0ZM101.65,143.917l154.363,92.854,154.053-92.358L255.972,56.176l-154.321,87.741h0Z" fill="#9aa0a6"/>
    <path d="M447.99,129.251l-6.614-3.787-12.965,7.949-172.397,103.356-170.051-102.289h0l-15.708-9.524-7.046,4.066c-.795.37-1.555.819-2.285,1.319l-.13.075.013.002c-1.789,1.248-3.356,2.873-4.554,4.863-1.615,2.684-2.333,5.652-2.271,8.568l-.02-.01v8.899l12.18,7.162,181.612,109.244c.05.03.103.055.153.085.211.124.424.242.64.356.121.064.242.126.364.187.177.087.355.17.534.25.162.073.324.145.488.213.133.054.267.104.4.155.207.079.414.156.622.225.087.029.174.054.261.081.252.079.504.155.758.221.041.011.082.019.123.029.295.074.591.143.888.2.002,0,.004,0,.007.001.666.127,1.334.214,2.004.255.043.003.087.002.13.004.286.015.573.028.858.028h.032c.288,0,.576-.013.864-.028.041-.002.082-.001.123-.004.969-.06,1.938-.214,2.896-.455.04-.01.081-.018.122-.029.253-.066.505-.142.756-.221.087-.027.174-.052.26-.08.207-.069.413-.146.618-.223.135-.051.27-.101.404-.156.162-.066.323-.138.483-.21.18-.08.358-.163.535-.25.121-.06.242-.122.362-.185.216-.113.429-.231.64-.354.05-.029.101-.053.15-.083l161.81-97.009v185.934l-170.037,97.71-170.037-97.711h0l-.011-.006-31.989-17.958v27.224h.011c.006,5.536,2.873,10.917,8.017,13.873l186.037,106.905c.296.17.597.33.903.48.018.009.036.02.054.029.203.099.411.187.617.277,2.063.903,4.233,1.345,6.383,1.345h.03c2.186,0,4.394-.457,6.488-1.392.169-.075.339-.146.505-.227.046-.023.091-.049.137-.072.277-.138.551-.281.82-.435.002-.001.005-.002.007-.004l186.037-106.905c4.967-2.854,8.028-8.146,8.028-13.873v-223.245c0-6.731-4.161-12.48-10.047-14.843l-.002-.002Z" fill="#4285f4"/>
  </g>
</svg>