<?xml version="1.0" encoding="UTF-8"?>
<svg id="standard_product_icon" xmlns="http://www.w3.org/2000/svg" version="1.1" viewBox="0 0 512 512">
  <!-- Generator: Adobe Illustrator 29.1.0, SVG Export Plug-In . SVG Version: 2.1.0 Build 142)  -->
  <g id="bounding_box">
    <rect width="512" height="512" fill="none"/>
  </g>
  <g id="art">
    <path d="M426.5,458.5H85.5c-17.673,0-32-14.327-32-32V85.5c0-17.673,14.327-32,32-32h341c17.673,0,32,14.327,32,32v341c0,17.673-14.327,32-32,32ZM85.5,426.5h341V85.5H85.5v341Z" fill="#4285f4"/>
    <path d="M166,365c-8.837,0-16-7.163-16-16v-131c0-8.837,7.163-16,16-16s16,7.163,16,16v131c0,8.837-7.163,16-16,16Z" fill="#9aa0a6"/>
    <path d="M346,365c-8.837,0-16-7.163-16-16v-56c0-8.837,7.163-16,16-16s16,7.163,16,16v56c0,8.837-7.163,16-16,16Z" fill="#9aa0a6"/>
    <path d="M256,365c-8.837,0-16-7.163-16-16v-187c0-8.837,7.163-16,16-16s16,7.163,16,16v187c0,8.837-7.163,16-16,16Z" fill="#4285f4"/>
    <path d="M426.5,458.5H85.493c-17.673,0-32-14.327-32-32h373.007V85.5h32v341c0,17.673-14.327,32-32,32Z" fill="#9aa0a6"/>
  </g>
</svg>