<?xml version="1.0" encoding="UTF-8"?>
<svg id="standard_product_icon" xmlns="http://www.w3.org/2000/svg" version="1.1" viewBox="0 0 512 512">
  <!-- Generator: Adobe Illustrator 29.1.0, SVG Export Plug-In . SVG Version: 2.1.0 Build 142)  -->
  <g id="bounding_box">
    <rect width="512" height="512" fill="none"/>
  </g>
  <g id="art">
    <path d="M442.54,458.45c-5.87,0-11.52-3.24-14.33-8.85L241.73,76.61c-3.95-7.9-.75-17.52,7.16-21.47,7.91-3.95,17.52-.75,21.47,7.16l186.49,372.99c3.95,7.9.75,17.52-7.16,21.47-2.3,1.15-4.74,1.69-7.14,1.69h0Z" fill="#ea4335"/>
    <path d="M69.53,458.45c-2.4,0-4.85-.55-7.14-1.69-7.9-3.95-11.11-13.57-7.16-21.47L241.73,62.3c3.95-7.9,13.55-11.08,21.47-7.16,6.19,3.07,7.59,8.08,10.73,14.31L83.86,449.6c-2.8,5.61-8.46,8.85-14.33,8.85Z" fill="#fbbc04"/>
    <path d="M69.54,458.44c-3.97,0-7.95-1.47-11.05-4.43-6.39-6.1-6.63-16.23-.53-22.63l186.49-195.37c6.1-6.39,16.23-6.63,22.63-.53,6.39,6.1,6.63,16.23.53,22.63l-186.49,195.37c-3.14,3.29-7.36,4.95-11.58,4.95h0Z" fill="#fbbc04"/>
    <path d="M442.53,458.44c-4.22,0-8.43-1.66-11.58-4.95l-197.04-206.42c4.29-4.5,6.12-6.6,11.07-11.58,6.39-6.1,16.52-5.87,22.63.53l186.49,195.37c6.1,6.39,5.87,16.52-.53,22.63-3.1,2.96-7.08,4.43-11.05,4.43h0Z" fill="#ea4335"/>
    <path d="M449.41,427.99l-186.49-88.81c-7.98-3.8-17.53-.41-21.33,7.57s-.41,17.53,7.57,21.33l122.55,58.36h-131.67v32.01h202.49c5.98,0,11.72-3.37,14.46-9.13,3.8-7.98.41-17.53-7.57-21.33h0Z" fill="#4285f4"/>
    <path d="M293.26,353.63l-30.34-14.45h0c-4.2-1.99-9.23-2.16-13.76,0l-186.49,88.81c-7.98,3.8-11.37,13.35-7.57,21.33,2.74,5.76,8.48,9.13,14.46,9.13h186.48v-32.01h-115.67l152.89-72.8h0Z" fill="#34a853"/>
  </g>
</svg>