<?xml version="1.0" encoding="UTF-8"?>
<svg id="standard_product_icon" xmlns="http://www.w3.org/2000/svg" version="1.1" viewBox="0 0 512 512">
  <!-- Generator: Adobe Illustrator 29.0.1, SVG Export Plug-In . SVG Version: 2.1.0 Build 192)  -->
  <defs>
    <style>
      .st0 {
        fill: none;
      }

      .st1 {
        fill: #4285f4;
      }

      .st2 {
        fill: #9aa0a6;
      }
    </style>
  </defs>
  <g id="bounding_box">
    <rect class="st0" width="512" height="512"/>
  </g>
  <g id="art">
    <path class="st1" d="M256,490c-44.2,0-85.9-11.3-117.6-31.8-33.8-21.9-52.4-51.7-52.4-84v-118.2h32v118.2c0,21,13.4,41.3,37.8,57.1,26.5,17.2,62.1,26.7,100.2,26.7s73.7-9.5,100.2-26.7c24.4-15.8,37.8-36.1,37.8-57.1h32c0,32.3-18.6,62.1-52.4,84-31.6,20.5-73.4,31.8-117.6,31.8Z"/>
    <path class="st2" d="M256,381c-44.2,0-85.9-11.3-117.6-31.8-33.8-21.9-52.4-51.7-52.4-84v-127.3h32v127.3c0,21,13.4,41.3,37.8,57.1,26.5,17.2,62.1,26.7,100.2,26.7s73.7-9.5,100.2-26.7c24.4-15.8,37.8-36.1,37.8-57.1h32c0,32.3-18.6,62.1-52.4,84-31.6,20.5-73.4,31.8-117.6,31.8Z"/>
    <path class="st2" d="M256,490v-32c38.1,0,73.7-9.5,100.2-26.7,24.4-15.8,37.8-36.1,37.8-57.2v-118.1h32v118.1c0,32.3-18.6,62.1-52.4,84.1-31.6,20.5-73.4,31.8-117.6,31.8h0Z"/>
    <path class="st1" d="M256,381v-32c38.1,0,73.7-9.5,100.2-26.7,24.4-15.8,37.8-36.1,37.8-57.2v-127.2h32v127.2c0,32.3-18.6,62.1-52.4,84.1-31.6,20.5-73.4,31.8-117.6,31.8h0Z"/>
    <path class="st1" d="M256,253.6c-44.2,0-85.9-11.3-117.6-31.8-33.8-21.9-52.4-51.7-52.4-84s18.6-62.1,52.4-84c31.6-20.5,73.4-31.8,117.6-31.8s86,11.3,117.6,31.8c33.8,21.9,52.4,51.7,52.4,84s-18.6,62.1-52.4,84c-31.6,20.5-73.4,31.8-117.6,31.8ZM256,54c-38.1,0-73.7,9.5-100.2,26.7-24.4,15.8-37.8,36.1-37.8,57.1s13.4,41.3,37.8,57.1c26.5,17.2,62.1,26.7,100.2,26.7s73.7-9.5,100.2-26.7c24.4-15.8,37.8-36.1,37.8-57.1s-13.4-41.3-37.8-57.1c-26.5-17.2-62.1-26.7-100.2-26.7Z"/>
    <path class="st2" d="M256,253.8v-32c38.1,0,73.7-9.5,100.2-26.7,24.4-15.8,37.8-36.2,37.8-57.2s-13.4-41.4-37.8-57.2c-26.5-17.2-62.1-26.7-100.2-26.7v-32c44.2,0,86,11.3,117.6,31.8,33.8,21.9,52.4,51.8,52.4,84.1s-18.6,62.1-52.4,84.1c-31.6,20.5-73.4,31.8-117.6,31.8h0Z"/>
  </g>
</svg>