<?xml version="1.0" encoding="UTF-8"?>
<svg id="standard_product_icon" xmlns="http://www.w3.org/2000/svg" version="1.1" viewBox="0 0 512 512">
  <!-- Generator: Adobe Illustrator 29.1.0, SVG Export Plug-In . SVG Version: 2.1.0 Build 142)  -->
  <g id="bounding_box">
    <rect width="512" height="512" fill="none"/>
  </g>
  <g id="art">
    <path d="M273.599,141.8H69.978c-8.837,0-16-7.163-16-16s7.163-16,16-16h203.621c8.837,0,16,7.163,16,16s-7.163,16-16,16Z" fill="#4285f4"/>
    <path d="M273.599,402.2H69.978c-8.837,0-16-7.163-16-16s7.163-16,16-16h203.621c8.837,0,16,7.163,16,16s-7.163,16-16,16Z" fill="#4285f4"/>
    <path d="M124.818,272h-54.841c-8.837,0-16-7.163-16-16s7.163-16,16-16h54.841c8.837,0,16,7.163,16,16s-7.163,16-16,16Z" fill="#4285f4"/>
    <path d="M441.978,141.8h-56.793c-8.837,0-16-7.163-16-16s7.163-16,16-16h56.793c8.837,0,16,7.163,16,16s-7.163,16-16,16Z" fill="#9aa0a6"/>
    <path d="M329.392,197.6c-39.587,0-71.793-32.209-71.793-71.8s32.206-71.8,71.793-71.8,71.793,32.209,71.793,71.8-32.206,71.8-71.793,71.8ZM329.392,86c-21.942,0-39.793,17.854-39.793,39.8s17.851,39.8,39.793,39.8,39.793-17.854,39.793-39.8-17.851-39.8-39.793-39.8Z" fill="#4285f4"/>
    <path d="M441.978,272h-205.573c-8.837,0-16-7.163-16-16s7.163-16,16-16h205.573c8.837,0,16,7.163,16,16s-7.163,16-16,16Z" fill="#9aa0a6"/>
    <path d="M180.611,327.8c-39.587,0-71.793-32.209-71.793-71.8s32.206-71.8,71.793-71.8,71.793,32.209,71.793,71.8-32.206,71.8-71.793,71.8ZM180.611,216.2c-21.942,0-39.793,17.854-39.793,39.8s17.851,39.8,39.793,39.8,39.793-17.854,39.793-39.8-17.851-39.8-39.793-39.8h0Z" fill="#4285f4"/>
    <path d="M441.978,402.2h-56.793c-8.837,0-16-7.163-16-16s7.163-16,16-16h56.793c8.837,0,16,7.163,16,16s-7.163,16-16,16Z" fill="#9aa0a6"/>
    <path d="M329.392,458c-39.587,0-71.793-32.209-71.793-71.8s32.206-71.8,71.793-71.8,71.793,32.209,71.793,71.8-32.206,71.8-71.793,71.8ZM329.392,346.4c-21.942,0-39.793,17.854-39.793,39.8s17.851,39.8,39.793,39.8,39.793-17.854,39.793-39.8-17.851-39.8-39.793-39.8Z" fill="#4285f4"/>
  </g>
</svg>